<!-- Generated by IcoMoon.io -->
<svg version="1.1" xmlns="http://www.w3.org/2000/svg" width="1024" height="1024" viewBox="0 0 1024 1024">
<title></title>
<g id="icomoon-ignore">
</g>
<path fill="#000" d="M517.867 7.040c-17.813 2.027-35.733 9.387-45.44 18.773-3.093 2.987-7.573 6.293-9.92 7.467-2.453 1.173-5.12 2.453-6.080 2.987s-8.107 0.96-16 0.96c-16.107 0.107-23.253 1.067-32.427 4.267-7.787 2.773-9.173 4.053-6.613 5.867 2.24 1.707 2.347 2.773 0.107 2.773s-12.8 7.040-15.36 10.453c-2.453 3.093-2.133 4.053 0.747 2.56 5.12-2.667 7.787-3.733 8.32-3.2 0.32 0.213-3.627 4.8-8.853 10.027-9.6 9.813-14.187 16-20.907 28.48-5.973 11.093-4.907 13.653 2.453 5.867 2.347-2.56 4.587-4.267 4.907-3.84 0.427 0.427-0.747 3.84-2.56 7.787-12.053 25.493-16.427 49.92-16.533 92.267-0.107 24.64 0.533 31.040 2.56 27.733 0.64-0.853 1.067-3.413 1.067-5.547s0.533-4.267 1.067-4.587c0.64-0.427 1.067 0.64 1.067 2.56 0 3.2 1.6 5.227 2.987 3.84 0.427-0.427 0.853-3.413 0.96-6.72s0.213-6.4 0.213-6.933c0.107-0.427 1.067-0.747 2.24-0.747 1.493 0 2.773 1.6 4.8 5.867 3.413 7.573 5.867 8 4.693 0.747-0.747-5.333-0.427-8.32 2.88-21.44l1.92-8 1.173 6.933c0.747 3.733 1.813 8.107 2.453 9.707 1.387 3.307 4.267 5.547 2.987 2.347-3.52-9.28-3.413-17.067 0.32-15.573 2.133 0.853 6.507 5.76 8.64 9.707l1.28 2.56 2.56-2.667c2.667-2.56 5.547-12.587 6.507-22.507 0.32-2.773 0.96-5.013 1.387-5.013 0.533 0 2.453 1.387 4.373 3.093 2.773 2.56 8.213 4.907 9.173 3.947 0.107-0.107-1.387-1.92-3.307-3.947-3.947-4.053-7.467-15.040-6.827-21.333l0.32-3.52 1.493 3.2c3.627 7.147 11.2 19.627 13.013 21.333 1.92 1.707 2.027 1.707 2.027-0.747 0-1.493-0.427-3.093-0.96-3.733-1.92-1.92-4.373-12.587-4.373-18.56 0-12.8 3.947-24.747 14.080-42.24 2.987-5.227 5.973-10.453 6.613-11.627 4.373-7.787 17.707-26.453 18.453-25.707 0.213 0.107-0.427 2.453-1.387 5.013-2.24 6.187-1.173 34.24 1.707 44.053 5.12 17.6 12.8 32.853 18.347 36.48 4.373 2.773 16.533 17.92 19.52 24.213 1.92 4.053 2.24 5.973 1.493 8.427-1.28 4.693-2.987 6.187-6.933 6.187-3.093 0-4.053 0.64-7.147 5.547-2.027 3.093-5.333 7.467-7.253 9.6l-3.627 3.947-16.533 1.067c-22.293 1.28-25.707 2.88-38.4 18.24-5.333 6.293-11.52 12.48-14.933 14.72-4.373 2.987-6.507 5.333-8.533 9.387-1.493 3.093-6.4 9.813-10.88 14.933-4.587 5.227-12.48 15.253-17.6 22.4-12.373 17.067-15.68 20.587-19.52 21.44-5.653 1.067-14.507 12.16-23.147 28.693l-7.68 14.827-0.747 12.8c-0.853 15.147-0.747 15.467 11.627 33.067 9.173 13.227 21.76 26.24 29.547 30.613 8 4.587 15.253 9.707 23.467 16.853 3.84 3.307 9.173 7.253 11.947 8.853 2.88 1.707 7.68 6.187 11.413 10.667 7.147 8.853 12.8 13.547 16.107 13.547 1.173 0 4.053-0.96 6.4-2.133 3.733-1.92 4.907-3.627 11.733-17.387 8-16.427 10.24-19.52 13.76-18.347 2.773 0.853 3.733 5.653 3.093 15.787l-0.533 7.68 5.44 5.013c2.987 2.88 6.293 5.12 7.467 5.12s2.987 0.747 4.053 1.813c1.067 0.96 2.773 2.24 3.947 2.88 6.293 3.733 21.653 15.573 27.947 21.44 0.96 0.853 2.24 1.6 2.88 1.6s2.453 1.173 4.16 2.56c1.6 1.387 4.053 2.773 5.44 3.2 1.28 0.427 2.347 1.173 2.347 1.707s1.813 1.493 4.053 2.133c2.133 0.747 4.693 1.92 5.547 2.667s2.773 1.707 4.267 2.133c1.493 0.427 3.84 1.707 5.227 2.773 1.387 1.173 3.52 2.027 4.8 2.027 1.173 0 4.16 0.96 6.507 2.027 2.347 1.173 8.853 2.773 14.507 3.627 10.88 1.6 12.907 1.28 26.88-4.373 1.6-0.747 4.16-1.6 5.547-1.92s2.773-1.28 3.093-2.133c0.32-0.853 1.28-1.493 2.133-1.493s4.907-3.093 8.853-6.933c3.947-3.733 7.68-6.933 8.32-6.933 0.533 0 4.693-3.733 9.28-8.213l8.213-8.213-0.64-18.453-0.64-18.56 3.627-3.947c8.747-9.28 16.427-23.787 22.293-41.813 4.587-14.080 6.4-25.92 6.4-42.133v-14.187l3.733-3.307c13.653-11.947 28.267-10.773 72.533 5.76 14.72 5.547 29.867 11.52 33.813 13.333 5.333 2.347 8.747 3.2 13.227 3.2 5.333 0 5.867 0.213 4.587 1.707-1.92 2.347-0.853 2.773 14.4 6.827 15.893 4.16 30.613 8.853 40.533 13.013 9.92 4.053 27.627 8.533 32.427 8.107 3.627-0.32 3.733-0.533 7.68-10.453 4.16-10.667 8.427-18.773 18.773-35.52 8.96-14.72 8.213-14.827 30.293 7.253l17.6 17.6h6.080c4.8 0 6.613 0.533 9.067 2.56 4.907 4.053 7.36 4.907 14.293 4.907 5.333 0 7.467-0.533 11.2-2.88 2.56-1.6 5.12-4.16 5.76-5.653 2.88-6.827 5.333-20.373 5.333-28.8v-9.067l-4.053-2.88c-4.373-3.093-19.307-7.68-32.213-9.92-10.347-1.813-24.747-5.547-30.72-8.107-2.56-1.173-6.293-2.027-8.213-2.027-3.627 0-3.627 0-3.947-5.547l-0.32-5.44-22.4-9.28c-12.267-5.013-28.373-12.16-35.733-15.68-16.96-8.32-42.667-17.067-64.533-22.080-63.893-14.72-95.573-24.96-104.853-33.813-4.587-4.373-16-9.387-21.44-9.493-1.493 0-5.547-0.96-9.067-2.027-23.68-7.573-23.893-7.573-42.667-7.573-11.2 0-17.707-0.427-17.707-1.067 0-1.067 1.813-2.773 5.76-5.653 1.6-1.173 2.24-3.2 2.56-8.32 0.213-4.373 0.96-7.253 2.027-8.107 1.28-0.96 1.6-3.2 1.493-8.747-0.107-6.827 0.107-7.787 2.453-9.813 1.813-1.6 3.093-4.373 3.947-8.213 0.96-5.12 2.027-6.72 6.827-11.307 4.267-4.16 5.547-6.080 5.333-8.107-0.107-1.493-0.32-3.2-0.427-3.947 0-0.64-2.027-3.52-4.373-6.187-3.84-4.48-4.267-5.547-4.267-10.667 0-8.107 1.813-15.787 4.907-20.267 2.347-3.413 2.56-4.907 2.56-14.72-0.107-23.040-6.293-35.307-26.667-52.587-13.013-10.987-20.907-14.827-44.267-21.547-23.573-6.72-34.987-8-52.267-5.973zM437.867 372.8c2.453 4.373 3.733 7.893 3.52 9.813-0.32 2.773-0.64 2.987-5.973 3.307-5.44 0.32-5.973 0.107-11.52-4.587-5.653-4.907-7.253-8-4.16-8 0.853 0 2.453-0.96 3.413-2.133 1.067-1.173 2.987-2.133 4.267-2.133 1.493 0 2.453-0.64 2.453-1.6 0-0.853 0.96-1.6 2.133-1.6 1.387 0 3.2 2.133 5.867 6.933z"></path>
<path fill="#000" d="M426.56 509.12c-13.333 15.893-22.613 32.96-28.907 53.013-4.693 15.040-10.347 28.587-14.72 35.2-2.133 3.2-6.187 9.813-8.96 14.613-3.947 6.827-6.933 10.347-14.293 16.64-6.613 5.653-10.027 9.387-11.413 12.693-1.067 2.453-3.627 6.827-5.547 9.493-1.92 2.773-4.267 7.040-5.12 9.6-2.24 6.293-4.053 8-12.907 12.053-7.36 3.52-7.68 3.733-15.68 15.68-10.88 16.213-11.413 16.747-18.56 19.52-5.12 2.027-8.64 4.8-20.48 16.533-8 7.893-16.427 15.147-19.2 16.64-6.293 3.2-18.453 13.333-25.28 20.8-2.88 3.307-8.747 8.64-13.12 12.053-6.507 5.013-8.64 6.080-11.947 6.080h-4.16l-23.68 31.68c-13.013 17.493-31.147 41.173-40.32 52.587-10.347 12.8-17.28 22.4-18.133 25.067-3.413 10.56-8 16.213-17.707 21.973-3.52 2.133-6.933 5.973-13.333 14.933-7.573 10.88-9.067 12.48-14.187 14.827-5.013 2.347-8.107 5.44-24 23.893-10.027 11.627-20.16 24.427-22.507 28.373-3.733 6.187-4.267 7.893-4.267 13.653 0 3.84 0.747 8 1.707 10.133 2.56 5.44 10.453 7.147 32.853 7.147h17.707l3.2-5.547c1.707-3.093 3.947-8.32 4.907-11.52 2.773-9.6 5.867-13.12 14.933-17.067 4.373-1.92 8.427-4.267 8.853-5.227 0.533-0.96 1.28-4.8 1.707-8.64 0.747-6.613 0.96-7.147 6.613-12.587 3.2-2.987 6.507-5.547 7.253-5.547 2.24 0 5.547-5.333 11.84-19.413 4.48-10.027 6.933-14.080 10.347-17.28 4.267-3.84 4.8-4.053 9.813-3.52 2.987 0.32 8.427 1.92 12.267 3.413 12.267 5.013 42.667 20.16 60.16 29.76 16.747 9.28 17.067 9.387 22.613 8.747 3.093-0.32 6.4-0.96 7.253-1.28 2.56-0.96 18.347-22.507 26.667-36.48 3.947-6.613 10.667-15.68 14.827-20.267 24.107-26.24 40.64-42.773 56.747-57.067 10.027-8.853 25.813-23.573 35.2-32.853 18.987-18.56 31.040-27.093 50.88-35.84 16.107-7.040 38.827-22.187 59.307-39.467 3.733-3.093 9.493-7.467 12.693-9.707 3.307-2.133 7.787-5.12 9.92-6.613 2.24-1.493 6.507-4.693 9.493-7.147 2.987-2.347 5.973-4.587 6.613-4.8 0.96-0.32 0.747-2.24-0.64-7.253-0.96-3.84-2.24-10.773-2.667-15.467s-1.387-12.053-2.133-16.32c-0.96-5.76-1.067-9.28-0.213-13.44 0.747-3.84 0.853-8 0.213-12.48-0.96-5.973-0.533-9.493 2.667-27.093 2.133-11.2 4.267-22.933 4.8-26.133 0.64-3.2 2.987-9.813 5.227-14.613l4.267-8.853-7.467-6.613c-4.053-3.733-8-6.933-8.747-7.147s-2.24-1.173-3.413-2.24c-1.173-0.96-5.227-3.093-9.067-4.693-3.84-1.493-8.747-3.733-10.88-4.907s-4.693-2.133-5.653-2.133c-0.96 0-2.987-0.96-4.48-2.133s-3.733-2.133-5.013-2.133c-1.28 0-3.947-1.173-5.973-2.667s-4.373-2.667-5.44-2.667c-0.96 0-2.987-0.96-4.48-2.133s-3.413-2.133-4.267-2.133c-0.96 0-1.92-0.427-2.24-0.96s-3.2-2.347-6.293-4.16c-5.12-2.88-25.067-18.453-26.347-20.587-0.427-0.533-4.693 3.947-9.707 10.027z"></path>
<path fill="#000" d="M656.32 518.933c-0.32 0.96-1.92 2.347-3.627 3.2-1.6 0.853-5.547 5.547-8.747 10.347-8.107 12.16-16 19.84-24.64 23.893-4.373 2.133-4.48 2.88-2.133 7.36 2.987 5.653 5.867 14.613 8.64 27.2 2.56 11.84 2.667 13.867 3.2 62.933 0.533 48.747 0.64 50.773 2.667 54.187 1.387 2.24 4.053 4.373 6.72 5.547 2.56 1.067 5.227 2.88 5.973 4.053 2.133 2.987 18.773 13.333 47.893 29.653 40.64 22.72 39.893 22.293 45.76 32.64 2.773 4.907 10.24 17.493 16.747 28.053s15.573 26.347 20.16 35.2c8.96 17.173 27.093 48.32 32.427 55.68 2.987 4.16 3.733 4.587 7.893 4.587 10.347 0 11.947 6.4 5.44 22.507-3.733 9.173-3.84 10.027-3.413 20.16 0.427 11.84 1.28 13.44 8.853 17.387 6.4 3.307 23.68 3.84 35.733 0.96 12.693-2.987 48.64-3.413 74.667-0.96 21.547 2.133 41.6 2.667 46.72 1.493 5.547-1.493 7.36-6.827 3.84-11.2-0.107-0.213-3.627-1.28-7.787-2.347s-10.987-3.84-15.253-6.187c-4.267-2.24-9.707-4.8-12.053-5.547-4.8-1.6-49.067-24.32-58.133-29.867-6.507-4.053-7.253-4.693-12.16-12.267-3.307-5.12-5.973-12.16-5.973-15.893 0-0.96 2.453-4.693 5.333-8.213 2.987-3.52 6.080-7.893 7.040-9.813 2.56-5.013 6.4-7.787 14.827-10.453 13.333-4.267 13.12-4.053 13.653-7.68 0.32-2.347-0.747-6.080-3.2-11.947-2.027-4.693-6.4-16-9.6-25.067-6.613-18.667-7.147-19.947-29.867-74.133-13.867-33.067-18.133-42.133-26.56-56.213-16.96-28.16-24.107-34.987-56.747-53.547-17.6-10.133-33.6-20.16-56.96-35.84-13.227-8.96-24.64-18.88-29.867-25.92-9.6-13.12-21.44-25.92-33.387-35.947-6.293-5.227-11.84-9.6-12.373-9.6s-1.28 0.747-1.707 1.6z"></path>
<path fill="#000" d="M584.747 573.333c-1.813 1.493-3.627 2.667-4.16 2.667s-2.987 0.96-5.44 2.133c-2.347 1.173-5.013 2.133-5.867 2.133-3.947 0-8.107 8.533-9.92 20.267-2.347 15.147-3.733 22.72-4.16 23.467-2.24 3.627-0.853 56.533 1.707 66.347l1.067 4.053h19.52c10.773 0 21.013 0.32 22.72 0.64l3.2 0.64 0.747-10.56c0.32-5.76 1.067-13.867 1.707-17.92 1.387-10.347 1.28-48-0.107-53.867-0.64-2.667-1.813-7.893-2.56-11.733-1.707-8.32-5.44-19.093-7.573-21.44-0.853-0.853-1.493-2.88-1.493-4.267 0-5.547-4.373-6.72-9.387-2.56z"></path>
</svg>
