<!-- Generated by IcoMoon.io -->
<svg version="1.1" xmlns="http://www.w3.org/2000/svg" width="858" height="1024" viewBox="0 0 858 1024">
<title></title>
<g id="icomoon-ignore">
</g>
<path fill="#000" d="M211.381 59.427c-1.355 0.581-4.065 4.259-6.194 8.324-3.291 6.388-5.42 7.936-14.518 10.647-11.614 3.291-18.389 8.517-18.389 14.131 0 4.646 7.162 11.421 14.905 14.131 3.484 1.161 7.743 4.839 9.872 8.13 1.936 3.484 8.13 11.034 13.55 17.034 5.614 6.001 10.066 11.808 10.066 12.776s-13.55 15.679-30.004 32.714c-16.454 16.841-30.004 30.972-30.004 31.359s12.002 13.55 26.713 29.036c14.905 15.679 36.585 38.715 48.393 51.297 11.808 12.389 26.519 27.1 32.714 32.327 6.194 5.42 15.099 14.518 19.938 20.132 8.324 10.066 16.454 15.486 30.584 20.712 7.743 2.71 7.549 2.323 28.068 53.039 22.067 54.781 24.777 60.395 35.23 76.461 5.033 7.549 10.259 16.841 11.808 20.519l2.904 6.775-21.293 22.648c-24.39 26.132-31.94 35.037-45.102 53.039-5.226 7.162-12.389 15.099-15.679 17.422-6.969 4.839-9.098 7.162-9.098 10.84s15.486 19.744 19.164 19.744c1.742 0 6.775-5.033 11.227-11.227 4.646-6.001 21.68-24.971 37.94-42.005l29.81-30.972 3.678 10.647c2.71 8.324 3.484 14.905 2.904 30.004-0.387 14.131 0.387 21.874 2.71 28.649 2.71 7.743 3.097 17.809 2.904 60.975 0 34.262-0.968 57.298-2.904 68.912-3.291 20.712-11.421 104.336-11.614 118.273v9.485l7.743 1.742c4.259 0.968 21.099 5.226 37.36 9.485 33.488 9.098 31.94 7.356 26.519 29.617-4.065 17.228-3.678 31.165 0.968 35.811 3.484 3.484 6.581 3.871 28.649 3.871 13.55 0.194 28.455 0.968 33.295 1.936s22.842 2.71 40.263 4.065c24.777 1.742 31.94 1.742 34.262-0.194 3.871-3.291 3.678-6.194-0.968-11.227-3.291-3.484-6.194-4.259-14.905-4.259-9.872 0-12.969-1.161-30.391-11.421-10.84-6.194-22.067-12.582-25.358-13.937-7.162-3.484-19.357-20.906-16.454-23.809 2.516-2.516 2.516-9.485-0.194-15.486-1.742-3.678-1.549-8.517 0.968-20.906 5.033-26.713 5.614-43.167 2.516-72.203-1.742-14.905-3.678-33.682-4.259-41.618s-2.904-20.519-5.226-27.681l-4.065-13.163 3.871-4.259c5.614-6.194 8.324-12.002 10.259-22.261 0.968-5.033 2.323-11.421 3.097-14.324 0.968-4.452 0-6.001-8.711-12.195-5.42-3.871-9.872-7.549-9.872-7.936s2.516-4.646 5.807-9.679c6.775-10.647 9.098-21.099 11.614-51.878 0.968-12.582 2.129-23.229 2.516-23.616 0.774-0.774 27.874-4.452 38.327-5.226 4.065-0.194 8.904-2.129 11.227-4.065 3.484-3.291 5.033-3.484 11.614-1.549 4.065 1.355 11.034 2.323 15.486 2.323 6.969 0 8.13 0.581 7.162 3.291-2.516 8.904-2.904 13.937-1.549 23.809 1.355 10.647 1.355 10.647 10.453 13.744 5.033 1.549 10.647 4.259 12.582 6.001 4.839 4.065 11.421 7.356 15.099 7.356 6.001 0 25.164-10.066 32.907-17.228 9.872-9.098 21.874-17.228 37.553-25.358 14.905-7.936 32.327-24.003 34.262-31.746 0.774-3.291 0.387-9.098-0.968-13.55s-3.291-16.647-4.065-27.294c-0.774-10.647-2.323-21.487-3.291-24.197-1.161-2.71-1.355-7.162-0.387-10.259s2.129-17.809 2.904-32.52c1.742-36.585 5.033-38.521 7.549-4.259 0.581 8.517 1.742 18.002 2.71 20.906l1.355 5.42 16.26-18.583 5.807 5.42c7.162 6.775 7.162 9.291 0.774 14.324-7.549 5.807-3.097 5.033 6.001-1.161l7.743-5.226-3.678 5.614c-1.936 3.291-5.807 8.324-8.711 11.421l-5.033 5.807 5.226-3.291c2.904-1.742 5.807-3.291 6.388-3.291 2.129 0-2.71 7.162-11.614 17.034-11.227 12.582-9.679 12.969 3.291 0.774 10.453-9.679 10.647-8.711 0.581 5.42-9.485 13.357-9.872 14.324-5.226 11.808 2.323-1.161 4.646-3.097 5.226-4.065 0.581-1.161 2.129-1.936 3.291-1.936s0.194 2.323-2.516 5.226l-4.646 5.226 5.42-4.259c3.097-2.129 8.13-7.356 11.421-11.421 6.001-7.549 6.001-7.549 2.129 5.226-0.581 1.549 0.774 0.194 3.097-2.904 4.839-6.775 5.033-5.033 1.355 7.549-1.936 6.581-2.129 8.904-0.581 8.324 9.291-3.871 9.098-4.065 7.162 2.516-1.549 5.226-1.355 5.807 1.161 3.678 2.516-1.936 2.516-1.549 0.968 2.904-1.161 2.71-1.742 5.033-1.355 5.033 2.516 0 9.872-16.067 16.647-36.585 6.775-20.132 7.936-26.132 8.324-41.812 0.194-10.066 0.581-18.389 0.968-18.389s1.936 2.904 3.484 6.194c2.904 6.388 2.904 6.194 1.936-5.614-0.581-6.581-2.904-16.647-5.033-22.261-4.839-12.582-4.839-12.582 0.194-8.13l4.259 3.678-3.291-6.194c-1.742-3.291-3.871-6.775-5.033-7.356-2.904-1.742-2.323-5.226 0.581-3.871 1.161 0.774-1.742-2.516-6.581-7.162-7.936-7.549-21.487-14.518-41.618-21.293-6.001-1.936-6.194-2.516-7.356-16.647-2.71-29.423-13.55-43.36-40.457-51.684-19.744-6.388-29.81-6.775-36.779-1.936-7.936 5.614-27.1 44.715-25.358 51.878 0.774 3.484 0 7.162-2.323 10.453-3.678 5.807-4.452 18.389-2.129 30.972l1.742 8.324h-6.388c-5.033 0-8.324-2.323-18.777-12.776-6.969-7.162-15.292-13.937-18.583-15.292-9.291-3.871-58.072-11.034-77.042-11.227-16.26-0.194-17.034 0-27.1 6.969-5.807 3.871-12.002 7.162-13.744 7.162-1.549 0-8.13-5.614-14.131-12.582-11.034-12.389-15.292-14.712-19.744-10.259-2.71 2.71-2.516 3.097-9.679-11.034-8.711-17.422-8.904-22.842-0.387-25.939 4.646-1.549 5.807-3.097 5.807-7.356 0-2.904 1.355-7.936 2.904-11.034 4.452-8.324 3.678-10.259-6.194-16.647-7.743-4.646-11.421-5.807-21.293-5.807-10.453 0-12.389 0.581-15.679 4.839-3.484 4.259-3.871 6.969-2.904 19.938 0.387 8.13 2.904 21.487 5.614 29.423 6.001 18.97 8.517 30.972 6.581 30.972-0.968 0-2.129-0.774-2.71-1.742-0.774-0.968-7.743-6.775-15.679-12.776-12.002-8.904-14.518-11.808-14.518-16.26 0-2.904-1.742-6.969-3.871-8.904-2.71-2.323-3.871-6.001-3.871-11.227 0-7.356-1.161-9.098-16.647-24.197-9.098-9.098-23.422-26.132-31.746-37.94-16.841-23.809-38.521-48.78-74.913-86.527-24.777-25.552-28.842-28.068-35.617-21.874-2.904 2.71-3.678 2.323-9.291-4.452-4.646-5.614-6.001-9.098-6.001-15.679 0-4.839-1.355-12.582-2.904-17.615-1.549-4.839-3.871-12.776-5.226-17.422-2.516-8.711-4.259-10.453-8.904-8.517z"></path>
</svg>
