<!-- Generated by IcoMoon.io -->
<svg version="1.1" xmlns="http://www.w3.org/2000/svg" width="648" height="1024" viewBox="0 0 648 1024">
<title></title>
<g id="icomoon-ignore">
</g>
<path fill="#000" d="M477.003 95.487c-1.296 2.16-9.505 2.592-18.579 1.296-19.011-3.024-47.527 9.073-58.329 25.060-7.777 10.802-9.505 48.824-2.592 53.144 2.16 1.296 3.024 7.777 1.728 14.69-2.16 9.505 0.432 15.122 12.53 28.084 12.962 13.826 16.851 15.554 24.196 11.666 11.234-6.481 13.394-6.049 13.394 1.728 0 3.889-3.457 7.777-7.345 9.073-4.321 1.296-13.394 4.753-20.739 8.209-47.959 21.171-60.922 24.628-93.327 25.060-33.701 0.864-33.701 0.864-50.984-15.986-28.949-28.516-49.256-61.354-46.663-75.612 3.457-15.986-10.802-32.405-24.196-28.084-24.196 7.345-25.492 25.060-3.889 53.144 13.394 17.715 35.43 51.416 35.43 54.873 0 0.864 4.753 9.505 10.802 19.011 7.777 12.53 10.802 23.332 10.802 38.454 0 22.9 6.481 30.677 25.060 30.677 8.209 0 37.158 10.37 75.612 27.22 13.826 6.049 19.875 10.802 18.147 15.122-1.296 3.024-2.16 8.209-2.16 11.234 0 10.37-52.28-10.37-101.536-40.182-14.258-8.641-40.614-20.307-58.329-26.356-62.218-21.171-167.642-94.191-192.27-133.077-11.234-17.283-16.851-15.554-18.579 6.049-0.864 14.258 0.864 19.011 12.098 29.813 10.37 9.938 12.962 15.986 12.962 30.677 0 20.739 8.641 32.405 21.171 28.949 11.234-3.024 37.158 9.938 45.799 22.9 6.049 9.505 6.049 12.53-0.432 34.565-6.481 23.332-6.481 24.628 0.864 31.973 4.753 3.889 16.851 10.802 27.22 14.69s38.454 20.307 62.65 35.862c23.764 15.554 55.305 33.701 69.563 40.182 15.554 6.913 32.837 19.011 42.775 30.245l16.851 19.011-10.37 6.481c-11.666 7.777-34.133 29.813-34.133 33.269 0 1.296 3.457 8.209 7.345 15.122 10.37 17.715 19.875 14.258 23.764-8.641 3.024-18.147 9.938-30.677 16.419-30.677 5.617 0 14.258 23.764 15.554 43.207 0.432 10.802 2.592 29.381 3.889 41.478 1.296 11.666 0.864 26.788-1.728 32.837-5.185 13.826-3.024 16.419 11.234 12.53 17.715-4.753 21.171-13.826 15.554-40.182-2.592-12.53-6.481-26.788-8.209-31.541-2.592-7.777-2.16-7.777 3.457-2.16 3.889 3.457 12.962 26.788 20.739 51.848 22.035 72.155 46.231 133.077 68.699 172.827 11.666 20.307 27.22 48.824 34.565 63.946 15.122 30.245 14.69 29.813 57.897 13.394 23.332-9.505 24.628-9.505 24.628-4.753 0 3.889-42.343 24.196-59.193 28.949-13.826 3.889-12.098 9.505 4.321 14.69 30.677 9.505 43.207 9.938 73.451 2.592 43.207-10.37 47.527-13.394 44.071-27.22-3.457-14.258-33.269-60.489-69.131-106.721-14.69-19.011-36.726-50.984-48.824-71.291-20.307-34.133-22.035-39.318-24.628-73.884-2.592-29.813-1.296-43.639 5.617-71.291 4.753-18.579 12.962-61.354 18.147-94.191 8.209-49.688 12.098-63.514 22.035-77.772 14.69-20.739 24.628-64.378 28.516-121.843 2.592-38.454 2.16-39.318-10.37-54.008-19.443-22.468-25.060-39.75-18.579-55.737 3.024-6.913 6.913-12.098 8.641-10.802 6.913 4.321-1.296-34.997-11.666-55.737-6.913-14.258-8.209-19.443-3.457-15.554 3.457 3.024 8.209 4.321 9.938 2.592s-1.296-6.913-6.913-11.234c-10.37-8.641-46.231-11.234-50.984-3.889z"></path>
</svg>
