<!-- Generated by IcoMoon.io -->
<svg version="1.1" xmlns="http://www.w3.org/2000/svg" width="564" height="1024" viewBox="0 0 564 1024">
<title></title>
<g id="icomoon-ignore">
</g>
<path fill="#000" d="M233.568 0.346c0 0.484 3.043 6.57 4.443 8.869 5.308 8.783 11.808 14.92 20.279 19.156 6.034 3.008 12.448 4.979 22.804 7.002 12.43 2.403 14.834 2.904 17.79 3.631 3.561 0.864 8.955 2.593 11.531 3.7 4.391 1.85 9.076 4.616 12.534 7.365 0.813 0.64 2.662 2.369 4.132 3.855l2.68 2.697 3.544 0.104c1.954 0.069 5.221 0.173 7.244 0.242 2.438 0.086 3.665 0.086 3.665-0.035 0-0.173-2.369-2.299-4.875-4.409-4.27-3.579-11.618-8.35-15.698-10.218-1.072-0.484-1.106-0.519-0.692-0.692 0.242-0.104 1.4-0.19 2.593-0.19 2.645 0 4.132 0.398 7.521 2.040 2.974 1.418 4.979 2.593 10.667 6.207 8.765 5.567 10.46 6.431 13.969 7.192 1.435 0.328 2.334 0.432 7.417 0.968 6.051 0.64 10.892 2.351 15.923 5.636 1.141 0.743 2.075 1.262 2.075 1.176 0-0.311-2.662-4.184-4.097-5.999-0.743-0.916-2.386-2.732-3.682-4.011-11.238-11.238-28.198-18.447-56.534-24.031-5.117-1.003-11.013-2.092-20.314-3.717-18.706-3.285-28.492-5.498-37.43-8.506-8.074-2.697-14.937-6.172-19.726-10.010-2.645-2.109-6.12-5.774-7.106-7.503-0.38-0.657-0.657-0.882-0.657-0.519z"></path>
<path fill="#000" d="M109.869 9.837c0.052 0.19 0.294 1.141 0.536 2.126 3.682 15.335 12.966 28.353 26.832 37.654 6.708 4.478 15.508 8.713 23.979 11.514 19.744 6.518 43.947 9.422 70.883 8.523 7.935-0.277 10.978-0.259 14.004 0.017 9.63 0.916 19.156 4.478 27.506 10.304 4.962 3.458 10.287 8.575 13.572 13.036 1.815 2.472 3.752 5.844 3.475 6.068-0.069 0.052-0.622 0.277-1.245 0.501-9.595 3.406-16.562 13.381-19.865 28.457-0.415 1.85-1.262 7.538-1.141 7.642 0.052 0.052 0.761-0.225 1.591-0.622 5.359-2.472 11.86-4.443 18.118-5.463 3.682-0.605 7.175-0.83 11.238-0.743 7.002 0.156 12.327 1.21 16.787 3.302 4.097 1.936 5.532 3.406 14.073 14.28 3.873 4.945 6.967 8.713 8.99 10.978 1.833 2.040 5.394 5.515 6.829 6.639l1.366 1.089-0.864-0.121c-6.379-0.934-16.735-8.783-22.873-17.358-1.746-2.438-6.362-6.293-10.373-8.662-5.031-2.974-9.007-4.322-12.759-4.322-3.786 0-5.48 0.934-7.953 4.322-4.979 6.812-7.814 14.177-8.316 21.524-0.484 7.348 0.64 13.727 3.734 21.265 0.968 2.334 3.129 6.691 3.285 6.622 0.069-0.035 1.089-0.709 2.282-1.504 4.702-3.147 10.494-5.429 16.424-6.483 3.354-0.588 4.858-0.709 9.249-0.709 4.495 0 6.172 0.121 10.408 0.795 11.307 1.763 24.429 6.552 37.914 13.814 3.786 2.057 8.558 4.875 13.139 7.797l3.198 2.040 0.415 1.089c1.089 2.939 3.752 8.506 5.29 11.117 2.265 3.803 4.409 6.622 6.794 8.921 2.040 1.971 3.682 3.147 5.636 4.063 1.902 0.864 3.060 1.141 5.429 1.227 2.161 0.104 3.475-0.052 5.117-0.588 1.072-0.346 1.141-0.242 1.141 1.677 0 1.47-0.415 3.821-0.951 5.446-0.432 1.349-2.040 4.512-3.025 6.051-1.227 1.867-2.974 4.236-3.147 4.236-0.069 0-0.138 0.121-0.138 0.259 0 0.328 1.124-0.104 3.492-1.331 4.599-2.403 6.812-5.221 8.938-11.41 0.484-1.418 1.124-3.164 1.435-3.89l0.553-1.331 0.207 0.536c0.363 0.882 0.571 3.043 0.415 4.426-0.432 3.838-3.043 8.143-8.108 13.416-0.778 0.795-1.4 1.504-1.4 1.573 0 0.19 2.265-0.259 3.631-0.709 5.757-1.902 10.010-6.794 11.998-13.814 0.415-1.504 0.795-3.924 0.795-5.1v-1.072l1.781-0.104c4.27-0.225 7.175-1.936 8.765-5.187 0.847-1.746 1.158-2.939 1.383-5.325 0.467-4.945-1.055-12.517-4.236-20.988-1.158-3.060-2.005-5.1-2.144-5.1-0.052 0-0.069 1.089-0.052 2.403 0.19 7.711-2.317 12.223-7.572 13.623-1.21 0.328-5.532 0.415-7.123 0.156-0.813-0.121-0.813-0.138-0.571-0.519 0.467-0.726 1.297-3.198 1.556-4.72 0.726-4.149-0.104-10.131-2.265-16.217-0.432-1.245-0.83-2.386-0.882-2.559-0.19-0.605-0.398-0.277-0.398 0.622 0 2.49-1.089 6.518-2.593 9.491-2.42 4.858-6.794 9.785-10.581 11.964l-0.813 0.467-0.104-0.657c-0.363-2.299-1.331-4.097-2.991-5.584-0.536-0.484-2.299-1.781-3.924-2.887-4.011-2.749-7.244-5.187-8.368-6.293-4.806-4.824-14.384-20.176-25.259-40.524-0.398-0.761-1.020-1.936-1.383-2.593-0.346-0.674-1.072-2.023-1.591-3.025-0.536-1.003-1.521-2.887-2.213-4.201s-1.193-2.455-1.106-2.524c0.086-0.069 0.968-0.467 1.971-0.882 1.003-0.432 3.458-1.591 5.463-2.593l3.665-1.815 0.83 0.571c1.573 1.072 4.564 2.801 6.777 3.89 3.544 1.781 6.829 2.939 9.958 3.527 2.126 0.398 7.088 0.398 8.904-0.017 4.184-0.934 7.814-2.904 12.188-6.587l2.092-1.746 1.124 0.501c4.46 2.005 8.921 2.818 16.476 3.008l4.46 0.104 0.328 0.64c0.588 1.158 2.351 3.354 3.734 4.668 4.668 4.443 10.892 6.207 14.574 4.132 0.726-0.415 0.968-0.484 1.072-0.311 0.45 0.743 1.227 3.665 1.47 5.619 0.259 1.919 0.259 2.576 0.086 4.789-0.207 2.49-0.674 5.446-1.4 8.765-0.311 1.47-0.847 3.544-2.196 8.644-0.225 0.899-0.571 2.23-0.761 2.939s-0.38 1.435-0.432 1.591c-0.156 0.519 0.294 0.363 1.988-0.64 5.377-3.181 9.837-8.316 13.433-15.473 2.369-4.737 4.236-10.114 5.515-15.819 0.259-1.141 0.467-2.092 0.484-2.092 0.017-0.017 1.712-0.519 3.752-1.106 4.357-1.262 7.14-2.075 9.768-2.853 1.055-0.311 1.936-0.536 1.954-0.519 0.104 0.086 0.346 1.227 0.64 2.922 0.328 1.815 0.363 6.189 0.086 8.264-0.328 2.351-1.158 6.12-1.902 8.575-0.571 1.884-2.161 6.449-2.68 7.676-0.277 0.674 0.363 0.259 1.625-1.037 5.117-5.221 9.163-13.105 11.065-21.559 0.519-2.265 1.055-5.792 1.055-6.829 0-0.415 0.104-0.519 0.657-0.709 1.366-0.432 3.077-1.435 4.046-2.351 1.867-1.798 2.472-3.371 2.351-6.172-0.121-2.628-1.124-5.187-3.181-8.056-1.124-1.556-3.89-4.374-5.29-5.394l-1.020-0.743 0.761-0.104c2.438-0.363 4.080-2.178 4.91-5.429 0.38-1.487 0.432-7.157 0.086-9.336-0.415-2.611-0.778-4.409-0.899-4.409-0.069 0-0.346 0.328-0.605 0.726-0.934 1.418-3.354 4.218-5.204 6.034-2.005 1.954-3.544 3.112-5.083 3.873l-0.968 0.467-1.521-0.864c-2.559-1.47-5.273-2.369-8.523-2.818-1.746-0.242-5.982-0.311-8.264-0.104-3.648 0.294-8.783 1.418-12.413 2.714l-1.521 0.536-1.003-0.605c-4.339-2.645-9.526-4.27-14.713-4.581-2.196-0.138-6.864 0-7.953 0.242-0.363 0.086-0.536-0.035-1.089-0.778-1.383-1.85-4.996-6.051-6.725-7.814l-1.798-1.85 0.294-1.176c0.968-3.7-0.328-6.985-4.011-10.183-6.985-6.051-23.305-11.428-46.921-15.456-7.209-1.245-16.822-2.611-23.685-3.371-1.331-0.156-2.697-0.311-3.025-0.346-0.968-0.121-7.399-0.743-8.904-0.864-0.761-0.069-1.521-0.156-1.712-0.207-0.778-0.225 0.035 0.415 3.44 2.68 4.737 3.164 7.676 5.515 11.065 8.921 4.028 4.028 6.673 7.728 8.558 11.998l0.813 1.85-0.968-0.484c-1.521-0.743-3.025-0.985-6.276-0.985-2.974 0-5.619 0.277-11.117 1.141-7.469 1.193-9.37 1.4-12.724 1.435-2.904 0.035-4.478-0.173-6.622-0.864-4.409-1.452-7.849-4.028-14.384-10.823-2.265-2.351-5.463-5.636-7.088-7.278l-2.956-2.974h0.899c0.484 0 1.4 0.156 2.005 0.363 2.334 0.761 3.976 1.971 8.454 6.293 5.74 5.515 8.731 7.797 12.621 9.664 4.011 1.919 6.639 2.524 11.497 2.645 3.648 0.086 5.325-0.052 9.146-0.83 1.677-0.346 6.397-1.729 6.622-1.954 0.242-0.242-2.265-4.789-4.080-7.365-3.942-5.619-9.267-10.563-15.456-14.28-10.598-6.379-24.204-10.114-42.028-11.566-4.737-0.398-8.99-0.519-17.046-0.519-12.794 0-19.605 0.346-39.504 1.988-2.282 0.19-4.651 0.38-5.273 0.432s-1.47 0.138-1.902 0.173c-2.974 0.328-15.093 1.297-21.438 1.729-8.834 0.588-18.447 0.622-23.599 0.086-13.952-1.487-27.299-6.829-39.245-15.733-8.385-6.224-17.029-15.197-22.198-23.046-1.055-1.573-1.556-2.092-1.314-1.349zM373.847 97.94c3.561 0.501 6.431 1.279 9.18 2.507 1.677 0.761 4.011 2.161 7.953 4.754 4.409 2.922 5.446 3.527 7.209 4.218l1.21 0.484-1.279 0.795c-2.524 1.573-5.601 2.818-8.61 3.492-1.763 0.38-5.809 0.536-7.572 0.277-3.734-0.553-6.777-2.299-8.541-4.927-1.176-1.746-1.884-2.524-3.233-3.596-3.008-2.403-6.743-3.631-14.799-4.893-1.521-0.225-3.112-0.484-3.544-0.571l-0.778-0.138 1.47-0.467c3.423-1.055 7.866-1.902 11.48-2.196 2.472-0.19 7.624-0.069 9.854 0.259zM447.894 111.338c1.573 1.037 5.308 2.922 7.659 3.89l1.642 0.674-1.124 0.571c-1.608 0.847-3.544 2.386-4.599 3.648-0.899 1.089-1.971 3.025-1.971 3.544 0 0.605-0.415 0.432-1.452-0.605-2.403-2.42-3.907-7.296-3.682-11.981 0.121-2.645 0.121-2.645 1.245-1.539 0.519 0.501 1.539 1.297 2.282 1.798z"></path>
<path fill="#000" d="M169.082 72.197c-6.431 0.432-10.874 1.106-15.905 2.42-3.198 0.83-6.224 1.798-6.224 1.971 0 0.086 1.262 0.121 2.904 0.052 3.337-0.121 10.788 0.19 13.693 0.571 5.135 0.674 8.61 1.798 11.41 3.7 1.193 0.83 3.527 3.216 4.443 4.581l0.709 1.055-1.487-0.311c-4.357-0.882-11.601-2.005-15.681-2.455-5.152-0.553-13.139-0.571-16.649-0.035-2.196 0.328-5.048 1.020-6.57 1.591-1.712 0.64-4.201 2.005-5.394 2.939-0.985 0.778-1.349 1.262-0.778 1.037 0.346-0.121 3.994-0.743 5.359-0.899 0.571-0.052 1.176-0.138 1.349-0.173 0.19-0.035 1.625-0.138 3.216-0.259 4.875-0.328 9.422 0.225 12.863 1.591 3.198 1.262 5.913 3.423 7.884 6.276 0.501 0.726 0.882 1.366 0.847 1.4s-0.605-0.086-1.262-0.277c-1.712-0.467-5.359-1.158-7.693-1.435-2.645-0.328-9.785-0.242-12.188 0.138-8.229 1.314-15.006 4.236-20.47 8.834-1.833 1.556-4.495 4.322-4.305 4.495 0.035 0.052 0.813-0.398 1.729-1.003 4.633-3.060 9.543-4.772 15.231-5.325 6.898-0.674 14.557 1.798 17.34 5.601 1.21 1.625 1.452 3.302 0.743 4.945-1.055 2.472-3.994 3.7-10.356 4.322-1.902 0.19-2.939 0.259-8.558 0.536-8.904 0.45-12.932 0.864-17.548 1.815-7.711 1.591-13.174 4.236-17.375 8.454-1.055 1.055-2.299 2.455-2.766 3.112-0.864 1.245-2.196 3.561-2.040 3.561 0.052 0 1.037-0.467 2.196-1.020 7.953-3.89 21.317-6.086 29.062-4.772 3.613 0.605 5.705 1.694 6.552 3.406 1.106 2.213 0.259 4.27-2.49 6.103-2.645 1.763-6.276 3.216-17.289 6.915-11.981 4.028-16.856 5.93-22.562 8.783-8.955 4.478-15.266 9.578-19.035 15.387-0.985 1.504-2.524 4.46-2.403 4.581 0.035 0.052 0.484-0.294 0.985-0.778 5.463-5.152 19.173-11.238 30.047-13.347 5.429-1.037 9.682-0.985 11.981 0.173 0.951 0.484 1.297 0.795 1.694 1.573 0.778 1.504 0.173 3.268-1.712 4.979-1.487 1.366-4.046 3.077-9.889 6.656-9.094 5.55-14.419 9.319-19.536 13.814-1.971 1.729-7.503 7.486-9.007 9.353-5.947 7.417-9.975 14.937-12.949 24.1-0.985 3.043-0.916 2.783-0.692 2.783 0.104 0 0.311-0.328 0.467-0.743 1.556-3.89 5.29-10.027 8.644-14.211 1.798-2.23 6.258-6.794 8.35-8.506 7.693-6.328 15.905-9.975 21.784-9.682 2.109 0.104 3.129 0.415 4.132 1.279 1.193 1.020 1.487 1.746 1.487 3.769 0 2.005-0.432 3.475-1.815 6.397-1.227 2.559-2.438 4.305-4.218 6.068-1.625 1.608-3.51 2.939-8.834 6.207-10.823 6.656-19.242 16.424-25.76 29.875-1.971 4.080-4.754 10.961-5.584 13.814-0.104 0.311-0.45 1.47-0.778 2.559-1.781 5.774-3.112 12.361-3.665 18.153-0.398 4.184-0.484 6.051-0.277 6.051 0.104 0 0.225-0.173 0.259-0.398 0.346-1.729 1.884-7.901 2.628-10.494 1.418-4.962 2.628-8.506 4.253-12.448 6.293-15.248 15.162-25.086 28.578-31.724 1.815-0.882 4.218-1.988 5.342-2.438 1.763-0.692 7.434-2.662 7.659-2.662 0.035 0-0.553 0.467-1.314 1.037-10.252 7.728-23.201 25.241-29.287 39.591-1.331 3.164-2.697 7.572-2.507 8.16 0.035 0.104 0.64-0.743 1.349-1.867 10.131-16.286 21.835-26.866 31.050-28.094 1.227-0.173 1.867-0.173 2.835 0 1.418 0.225 2.559 0.657 2.317 0.847-4.495 3.803-7.797 7.296-11.998 12.742-9.094 11.756-16.286 26.365-18.741 38.035-0.916 4.443-1.279 9.664-0.899 13.139 0.242 2.213 1.020 5.446 1.297 5.446 0.086 0 0.207-0.363 0.277-0.83 0.19-1.331 0.934-4.115 1.729-6.518 2.576-7.711 7.14-16.338 12.361-23.357 5.999-8.056 11.324-12.223 14.782-11.583 1.262 0.242 2.386 1.694 2.939 3.821 0.328 1.279 0.328 2.282 0 3.994-0.657 3.458-2.092 6.552-7.261 15.629-2.248 3.959-4.841 9.025-6.016 11.756-4.391 10.148-5.308 18.758-2.87 27.229 0.622 2.178 2.075 5.671 3.216 7.745 0.985 1.781 3.544 5.653 3.752 5.653 0.156 0 0.138-0.086-0.501-1.902-3.268-9.301-1.625-21.593 4.322-32.347 3.648-6.57 8.523-12.085 12.5-14.107 1.124-0.571 1.452-0.657 2.472-0.657 1.003 0 1.227 0.052 1.642 0.432 0.709 0.657 1.556 2.662 1.954 4.616 0.415 1.971 0.501 6.431 0.19 9.042-0.104 0.813-0.225 1.815-0.277 2.248-0.086 0.726-0.778 5.394-1.349 9.163-0.138 0.899-0.294 1.988-0.363 2.42-0.052 0.432-0.173 1.314-0.259 1.988-0.588 4.409-0.778 11.964-0.38 14.436 0.104 0.622 0.242 1.47 0.294 1.884 0.363 2.541 1.798 6.622 3.164 8.938 1.055 1.833 2.593 3.821 4.028 5.273 1.452 1.435 2.749 2.524 2.749 2.265 0-0.104-0.294-0.674-0.674-1.279-2.818-4.651-4.115-9.595-3.665-14.021 0.484-4.72 2.178-8.385 7.399-15.975 3.198-4.633 4.080-6.068 5.342-8.61 1.919-3.924 2.662-6.846 2.662-10.598 0-1.798-0.052-2.213-0.311-2.593-1.331-1.936-4.893-9.319-6.743-13.952-3.838-9.664-6.691-21.265-7.901-32.070-0.726-6.673-0.864-9.422-0.864-17.807 0-7.486 0.156-11.341 0.605-15.819 0.086-0.864 0.207-2.057 0.259-2.68 1.383-15.162 5.895-35.269 11.756-52.384 8.42-24.567 27.852-51.814 51.52-72.18 11.186-9.63 22.89-17.254 34.11-22.25 2.628-1.158 7.106-2.904 8.385-3.25 1.020-0.277 1.089-0.605 0.086-0.45-3.924 0.64-9.059 1.003-14.142 1.003-6.985 0-11.117-0.363-25.414-2.178-8.869-1.124-12.88-1.47-18.499-1.556-2.334-0.035-4.668-0.035-5.187 0z"></path>
<path fill="#000" d="M239.36 75.655c-18.775 9.474-33.937 19.277-47.976 30.998-5.965 4.979-14.107 12.949-19.208 18.775-14.574 16.632-25.068 35.199-30.998 54.839-4.046 13.416-8.056 33.229-9.18 45.348-0.052 0.622-0.138 1.4-0.173 1.729-0.277 1.919-0.64 7.59-0.813 12.655-0.277 8.074 0.052 16.649 0.899 23.737 2.956 24.411 11.566 45.555 26.953 66.042 2.161 2.887 7.763 9.785 8.489 10.46 0.052 0.052 0.674 0.743 1.383 1.556 4.72 5.377 13.105 13.779 17.946 18.032 9.647 8.437 22.371 16.77 39.712 25.95 14.004 7.417 30.238 14.972 60.51 28.163 8.558 3.734 21.818 9.561 24.118 10.615 0.519 0.242 2.23 1.020 3.803 1.729 4.754 2.161 11.687 5.394 14.436 6.76 1.435 0.709 2.991 1.452 3.458 1.677 1.625 0.709 11.047 5.653 14.592 7.642 8.506 4.772 15.542 9.44 20.591 13.623 8.575 7.14 18.879 20.366 26.365 33.886 8.177 14.747 14.125 31.344 17.185 47.889 0.674 3.579 0.847 4.668 1.297 8.039 1.573 11.531 1.729 23.996 0.467 35.096-0.38 3.268-0.38 3.337-0.899 6.57-3.008 18.706-10.356 36.479-21.023 50.742-12.915 17.271-30.618 30.428-52.609 39.072-12.742 5.014-25.431 8.074-39.072 9.405-34.421 3.406-69.396-6.241-96.729-26.642-22.734-16.96-38.865-40.196-46.23-66.526-2.282-8.16-3.752-16.701-4.426-25.76-0.035-0.519-0.121-3.285-0.19-6.137-0.19-8.229 0.328-15.802 1.677-24.429 0.19-1.279 0.328-2.351 0.277-2.386-0.104-0.104-2.87 1.988-4.875 3.717-10.667 9.146-17.807 21.334-20.919 35.632-2.144 9.924-2.282 21.351-0.415 33.021 3.129 19.571 11.739 40.593 25.829 63.103 5.29 8.471 10.287 14.695 17.634 22.043 10.027 10.010 22.216 19.087 35.787 26.659 18.343 10.235 38.778 17.721 59.991 21.991 24.083 4.841 48.598 5.411 71.661 1.642 31.967-5.221 60.147-18.309 84.731-39.331 2.628-2.23 2.749-2.351 7.209-6.535 3.112-2.939 7.814-7.901 11.22-11.877 14.419-16.77 25.397-36.323 32.451-57.726 4.927-15.006 7.866-30.238 8.99-46.765 0.328-4.806 0.363-6.172 0.346-15.733 0-10.235-0.277-15.024-1.383-24.809-0.553-4.91-1.106-8.731-1.988-13.917-2.369-13.762-6.034-28.042-10.84-42.184-1.677-4.927-1.884-5.48-3.492-9.768-3.458-9.198-5.861-14.315-11.013-23.426-2.369-4.184-7.244-11.462-11.099-16.58-1.383-1.815-6.137-7.763-6.397-7.97-0.052-0.052-0.571-0.64-1.141-1.297-4.028-4.72-13.139-14.107-17.634-18.17-4.288-3.873-4.927-4.426-6.915-6.137-21.057-18.032-46.748-34.906-83.504-54.874-2.766-1.487-5.498-2.974-6.086-3.302-0.951-0.519-16.303-8.713-20.625-10.996-33.834-17.98-44.881-25.12-56.689-36.704-9.768-9.578-17.6-20.141-23.806-32.157-4.979-9.612-8.16-18.516-10.442-29.131-0.519-2.369-1.227-7.227-1.591-10.719-0.328-3.216-0.277-12.396 0.086-15.646 1.418-12.534 5.066-22.89 11.462-32.52 7.14-10.771 17.029-19.45 30.238-26.572 2.092-1.124 4.339-2.213 7.745-3.734 1.418-0.64 6.829-2.783 7.019-2.783 0.259 0 0.242-0.121-0.242-1.573-1.418-4.115-2.559-8.852-3.129-13.105-0.432-3.060-0.398-8.368 0.069-11.013 1.331-7.572 5.169-12.551 11.722-15.162 1.539-0.622 4.011-1.331 4.599-1.331 0.173 0 0.311-0.086 0.311-0.207 0-0.259-4.27-4.443-6.656-6.518-6.691-5.792-14.747-10.425-28.336-16.286-1.504-0.657-2.801-1.193-2.853-1.176-0.052 0-0.795 0.346-1.66 0.778zM263.91 102.728c-4.841 5.152-7.175 11.601-7.175 19.83 0 5.204 1.089 11.462 2.783 16.078 0.19 0.501 0.311 0.951 0.294 0.968-0.086 0.086-3.665 1.47-3.803 1.47-0.207 0-2.697-4.080-3.924-6.431-4.72-9.042-5.965-17.392-3.907-26.071 0.692-2.904 0.484-2.662 3.060-3.458 3.389-1.072 13.226-3.838 14.021-3.959 0.086 0-0.519 0.692-1.349 1.573zM241.521 109.782c-2.213 10.027 1.815 21.835 10.529 30.825 0.726 0.743 1.331 1.4 1.366 1.47 0.017 0.069-0.847 0.501-1.902 0.985-1.072 0.467-3.129 1.452-4.581 2.196l-2.628 1.331-0.726-0.813c-3.008-3.44-6.604-8.869-8.627-13.070-2.749-5.723-4.167-11.48-4.218-17.046l-0.017-3.008 1.815-0.761c2.144-0.916 9.232-3.665 9.284-3.613 0.017 0.035-0.121 0.709-0.294 1.504zM224.993 116.992c0.519 7.97 3.803 15.992 9.353 22.786 1.539 1.884 5.048 5.359 6.846 6.777l1.331 1.037-1.712 1.003c-0.951 0.536-3.025 1.85-4.616 2.887l-2.887 1.919-2.23-2.317c-7.676-7.97-12.534-16.493-14.609-25.57-0.588-2.593-0.968-5.342-0.761-5.55 0.19-0.19 8.869-4.633 9.076-4.651 0.052 0 0.156 0.761 0.207 1.677zM210.886 125.117c0.864 4.685 3.44 10.926 6.293 15.179 3.44 5.135 8.298 10.027 12.949 13.036 0.813 0.536 1.504 1.037 1.521 1.106 0.017 0.086-0.692 0.692-1.573 1.383-0.882 0.674-2.49 1.971-3.579 2.887-1.072 0.899-2.057 1.712-2.178 1.798-0.242 0.173-1.037-0.415-4.409-3.233-2.351-1.971-7.088-6.794-8.886-9.025-3.371-4.201-6.155-8.955-8.056-13.744-0.692-1.729-1.954-5.55-1.867-5.619 0.311-0.242 5.152-3.406 6.622-4.305 1.055-0.657 2.057-1.279 2.248-1.418 0.19-0.121 0.38-0.225 0.432-0.225 0.052-0.017 0.277 0.968 0.484 2.178zM196.899 133.295c0.398 1.418 1.608 4.374 2.628 6.397 4.391 8.783 12.379 16.804 21.006 21.109l2.23 1.106-2.853 2.818-2.853 2.835-2.576-1.331c-11.773-6.068-20.521-14.505-25.673-24.774l-1.055-2.092 1.124-0.951c0.622-0.536 1.608-1.383 2.213-1.884 2.109-1.815 5.377-4.27 5.48-4.149 0.069 0.086 0.207 0.484 0.328 0.916zM186.733 149.165c1.746 2.593 2.87 3.959 5.256 6.414 5.982 6.155 13.554 10.684 21.801 13.053 1.763 0.501 1.954 0.588 1.694 0.813-0.536 0.432-5.567 6.639-5.688 7.019-0.035 0.104-4.789-1.418-6.95-2.213-9.664-3.579-17.323-8.662-23.34-15.508-2.092-2.369-4.651-5.895-4.53-6.241 0.121-0.328 3.51-4.063 5.999-6.622l2.49-2.541 1.020 2.005c0.553 1.089 1.573 2.818 2.248 3.821zM171.934 158.138c2.939 4.478 7.538 8.973 12.396 12.171 2.126 1.383 6.293 3.579 8.35 4.391 4.875 1.936 11.583 3.527 14.903 3.544h0.899l-1.608 2.455c-0.882 1.366-1.954 3.077-2.369 3.803-0.864 1.521-0.363 1.418-3.873 0.916-11.134-1.591-20.228-5.377-28.007-11.618-1.919-1.539-5.826-5.325-7.071-6.846l-0.674-0.813 1.521-2.299c1.383-2.057 4.72-6.691 4.824-6.691 0.035 0 0.346 0.45 0.709 0.985zM163.29 172.194c1.279 1.694 5.411 5.792 7.175 7.106 8.143 6.068 18.084 9.319 28.699 9.37h3.025l-0.951 1.919c-0.536 1.055-1.262 2.611-1.642 3.475-0.363 0.847-0.778 1.66-0.934 1.763-0.536 0.45-7.296 0.242-12.206-0.398-8.368-1.055-16.078-3.976-22.994-8.679-2.524-1.729-6.656-5.117-6.656-5.463 0-0.484 5.117-10.477 5.359-10.477 0.052 0 0.553 0.622 1.124 1.383zM158.64 189.845c3.44 2.956 8.16 5.723 12.43 7.296 5.74 2.092 11.981 3.043 18.499 2.818 2.697-0.086 7.434-0.622 7.832-0.864 0.086-0.052-0.346 1.366-0.934 3.147s-1.314 4.218-1.625 5.411l-0.553 2.196-3.198 0.121c-10.269 0.415-18.862-1.297-27.281-5.446-3.734-1.833-8.886-5.273-11.843-7.901l-0.761-0.692 1.003-3.008c0.553-1.66 1.297-3.752 1.66-4.651 0.346-0.899 0.692-1.781 0.743-1.954 0.104-0.259 0.328-0.086 1.279 0.934 0.64 0.674 1.867 1.833 2.749 2.593zM154.162 204.904c7.417 6.172 17.116 9.474 27.869 9.474 3.89 0 7.382-0.363 11.151-1.158 0.277-0.052 0.467-0.035 0.398 0.052-0.19 0.311-1.089 6.189-1.193 7.728-0.017 0.363-0.086 0.692-0.156 0.726-0.328 0.207-6.57 0.968-9.353 1.141-6.967 0.415-14.125-0.571-20.591-2.853-4.945-1.746-9.094-3.942-14.834-7.884-0.156-0.121 0.571-3.855 1.608-8.247l0.743-3.129 1.4 1.418c0.761 0.778 2.092 2.005 2.956 2.732zM150.099 219.858c8.748 6.656 20.746 9.319 33.246 7.382 2.438-0.38 6.777-1.435 8.471-2.075 0.121-0.052 0.173 1.573 0.173 4.668v4.754l-0.864 0.259c-0.467 0.138-1.4 0.415-2.075 0.622-7.071 2.109-14.471 3.060-20.4 2.611-2.87-0.225-2.956-0.242-5.792-0.709-4.927-0.83-11.428-3.077-16.147-5.584l-1.383-0.726 0.052-1.383c0.069-2.611 0.882-11.186 1.176-12.327 0.086-0.363 0.156-0.328 1.245 0.622 0.622 0.553 1.66 1.4 2.299 1.884zM147.644 237.51c8.42 5.325 18.758 7.209 29.563 5.377 4.668-0.795 9.785-2.438 13.693-4.409 0.657-0.328 1.227-0.588 1.262-0.553 0.017 0.035 0.086 0.709 0.156 1.521 0.121 1.712 0.553 4.893 0.882 6.604l0.225 1.193-1.331 0.657c-6.137 3.095-13.139 5.256-19.726 6.103-2.334 0.294-9.388 0.294-11.583 0-4.616-0.64-8.644-1.573-12.534-2.922l-2.42-0.847-0.121-1.21c-0.207-1.988-0.484-8.126-0.484-10.684v-2.386l0.484 0.311c0.259 0.173 1.124 0.726 1.936 1.245zM194.15 250.857c0 0.45 1.418 5.947 1.954 7.572l0.432 1.262-1.539 1.020c-13.053 8.783-25.76 11.791-40.438 9.578-3.060-0.45-5.861-1.141-5.947-1.435-0.242-0.83-1.331-6.76-1.556-8.402-0.052-0.38-0.259-1.763-0.45-3.077-0.19-1.331-0.346-2.438-0.346-2.455 0-0.035 1.037 0.432 2.299 1.037 5.619 2.732 9.682 3.682 16.199 3.838 6.864 0.156 11.704-0.709 18.153-3.25 3.492-1.366 8.42-4.011 10.46-5.619 0.64-0.501 0.778-0.519 0.778-0.069zM198.887 266.243c0.605 1.573 1.383 3.423 1.694 4.132l0.588 1.279-1.055 0.968c-5.567 5.135-12.067 9.301-18.412 11.825-3.527 1.418-7.987 2.541-12.448 3.164-1.677 0.242-3.319 0.311-7.348 0.311-5.256 0-7.797-0.207-8.074-0.622-0.069-0.121-0.605-1.625-1.158-3.337-0.916-2.835-1.487-4.789-2.662-9.094l-0.415-1.487 1.47 0.588c4.253 1.66 9.491 2.645 14.125 2.645 10.632 0 22.008-4.581 30.774-12.396 1.245-1.106 1.573-1.331 1.677-1.106 0.069 0.156 0.622 1.556 1.245 3.129zM203.745 276.893c1.089 2.075 2.783 5.083 3.319 5.878 0.225 0.346 0.138 0.501-1.349 2.248-7.832 9.249-17.323 15.404-28.111 18.222-1.884 0.484-5.982 1.262-7.745 1.47-3.025 0.328-4.374 0.432-6.155 0.432h-2.005l-1.487-2.904c-1.625-3.181-2.645-5.394-4.011-8.696l-0.899-2.196 0.536 0.173c1.227 0.38 4.115 1.020 5.895 1.279 2.334 0.363 7.745 0.415 10.114 0.086 7.572-1.020 14.626-3.959 21.006-8.731 3.129-2.334 6.76-5.774 8.817-8.35 0.484-0.605 0.882-1.089 0.899-1.089s0.536 0.985 1.176 2.178zM210.73 288.528c0.778 1.176 1.971 2.87 2.645 3.786s1.227 1.746 1.227 1.85c0 0.45-3.665 5.723-5.671 8.126-1.66 2.005-5.273 5.619-7.261 7.261-7.157 5.895-15.491 9.63-25.864 11.583-1.245 0.242-2.299 0.432-2.317 0.432-0.069 0-3.648-4.253-4.512-5.359-1.902-2.455-5.411-7.607-5.169-7.607 0.052 0 0.847 0.138 1.781 0.294 2.42 0.415 8.955 0.415 11.445 0 5.965-1.003 11.134-2.974 16.061-6.137 5.757-3.682 10.996-8.921 14.816-14.816 0.657-1.003 1.227-1.746 1.279-1.677 0.069 0.069 0.761 1.089 1.539 2.265zM217.68 297.916c0.571 0.726 3.25 3.942 3.44 4.115 0.052 0.052 0.588 0.657 1.193 1.331 1.279 1.47 1.331 1.037-0.467 4.512-5.083 9.872-11.652 16.908-20.833 22.32-3.181 1.867-7.486 3.786-11.687 5.204l-2.144 0.726-2.697-2.732c-2.818-2.853-5.429-5.601-7.175-7.503l-1.003-1.124 2.472-0.104c2.818-0.138 5.774-0.519 7.935-1.037 4.149-0.985 9.353-3.25 12.828-5.584 6.881-4.581 12.932-11.635 16.58-19.242 0.415-0.882 0.813-1.608 0.882-1.608 0.052 0 0.363 0.328 0.674 0.726zM232.565 314.306c-0.156 0.934-1.85 5.74-2.818 8.005-5.117 11.964-13.036 20.366-25.604 27.143l-1.141 0.622-2.662-2.213c-5.48-4.581-10.2-8.869-9.924-9.025 0.104-0.069 0.622-0.156 1.141-0.225 6.552-0.778 13.399-3.717 19.19-8.195 1.833-1.435 5.256-4.841 6.812-6.777 3.354-4.218 6.656-10.183 8.229-14.937l0.38-1.176 3.233 3.164c2.766 2.732 3.233 3.25 3.164 3.613zM238.34 318.956c1.037 0.899 2.766 2.334 3.838 3.198 1.055 0.847 1.936 1.677 1.936 1.833 0 0.328-0.743 4.201-1.037 5.446-1.954 8.091-5.204 14.851-10.131 21.092-2.783 3.527-8.005 8.402-11.998 11.203l-1.124 0.778-1.383-0.968c-3.976-2.783-11.151-8.022-11.895-8.679-0.086-0.069 0.657-0.415 1.642-0.778 9.509-3.458 17.34-10.408 22.181-19.674 1.521-2.887 2.541-5.273 3.371-7.849 0.692-2.092 1.573-5.567 1.815-7.106l0.121-0.726 0.398 0.294c0.207 0.173 1.227 1.037 2.265 1.936zM249.992 328.171c1.452 1.055 6.362 4.53 6.673 4.702 0.069 0.035-0.64 5.567-0.864 6.881-2.144 11.929-7.728 22.026-16.839 30.462-1.020 0.934-2.092 1.884-2.403 2.126l-0.536 0.415-2.662-1.625c-2.541-1.556-5.723-3.544-8.731-5.463l-1.418-0.899 1.867-0.934c12.050-6.034 20.366-18.62 22.233-33.626 0.138-1.089 0.259-2.403 0.277-2.887 0.035-0.64 0.104-0.864 0.225-0.761 0.104 0.069 1.089 0.795 2.178 1.608zM262.907 336.919c1.314 0.847 3.613 2.248 5.117 3.129l2.714 1.608v1.176c0 1.47-0.45 5.913-0.795 7.901-1.815 10.46-5.844 18.741-13.174 27.022-1.037 1.193-2.403 2.662-3.025 3.268l-1.141 1.106-3.077-1.694c-1.694-0.934-4.651-2.593-6.587-3.682l-3.492-1.988 0.64-0.38c4.789-2.714 9.716-7.348 12.966-12.188 3.579-5.325 6.224-12.586 7.036-19.294 0.207-1.729 0.484-6.016 0.415-6.725-0.035-0.432-0.035-0.778-0.017-0.778s1.106 0.692 2.42 1.521zM279.815 346.687c1.521 0.795 3.579 1.867 4.564 2.351l1.781 0.899-0.104 2.282c-0.536 10.978-3.129 19.398-8.541 27.696-0.795 1.227-1.815 2.697-2.248 3.285-1.314 1.729-4.253 5.117-5.463 6.293l-1.124 1.124-1.954-1.020c-4.668-2.403-10.373-5.429-10.563-5.601-0.069-0.069 0.311-0.432 0.864-0.795 9.491-6.293 15.871-17.029 17.496-29.477 0.311-2.334 0.346-2.991 0.346-6.449l0.017-3.268 1.089 0.605c0.588 0.328 2.317 1.262 3.838 2.075zM301.235 357.077l0.501 0.19-0.121 3.285c-0.45 12.707-3.873 22.406-11.324 32.139-1.106 1.452-3.717 4.512-4.841 5.688-0.294 0.294-0.363 0.277-1.763-0.38-3.613-1.677-9.543-4.53-10.581-5.083l-1.124-0.588 0.519-0.294c2.092-1.245 6.794-5.584 8.817-8.143 4.72-5.965 7.624-13.105 8.713-21.351 0.311-2.386 0.467-7.728 0.277-9.44l-0.138-1.21 5.29 2.49c2.904 1.366 5.498 2.576 5.774 2.697zM310.761 361.659c2.576 1.262 5.117 2.49 5.688 2.732l1.003 0.467-0.086 3.976c-0.052 2.196-0.207 4.962-0.363 6.155-1.418 10.944-5.498 19.83-13.381 29.166-1.418 1.694-1.677 1.919-2.005 1.781-0.588-0.225-6.864-2.974-9.699-4.236-1.418-0.64-2.766-1.227-2.991-1.314-0.38-0.138-0.328-0.207 0.847-1.106 7.624-5.723 12.759-13.589 15.006-22.976 1.262-5.238 1.591-9.993 1.124-15.819-0.069-0.726-0.052-1.245 0.035-1.193s2.265 1.124 4.824 2.369zM332.199 372.412l1.556 0.83 0.052 0.83c0.035 0.45-0.017 1.919-0.138 3.25-0.985 12.24-5.048 22.043-13.001 31.465-0.726 0.847-1.85 2.075-2.507 2.732l-1.193 1.158-4.132-1.815c-2.282-1.003-4.305-1.902-4.495-1.988s-0.951-0.432-1.694-0.743l-1.331-0.588 1.418-1.089c2.040-1.573 5.359-4.962 6.985-7.123 4.841-6.466 7.451-13.623 8.212-22.527 0.19-2.317 0.138-6.466-0.121-8.8l-0.121-1.003 4.478 2.299c2.455 1.262 5.187 2.662 6.034 3.112zM347.672 380.728l3.544 1.954v0.778c-0.017 0.864-0.259 3.648-0.346 3.803-0.017 0.052-0.086 0.467-0.156 0.951-0.242 2.092-1.245 6.414-2.057 8.904-2.057 6.293-5.256 12.085-9.561 17.289-1.487 1.798-5.152 5.636-5.619 5.895-0.225 0.104-1.712-0.553-5.878-2.593-3.077-1.504-5.844-2.818-6.155-2.939l-0.553-0.225 1.746-1.383c8.056-6.414 13.036-15.283 14.851-26.417 0.311-1.936 0.38-3.095 0.398-6.829l0.017-4.512 3.112 1.677c1.712 0.934 4.702 2.559 6.656 3.648zM357.147 386.088c1.591 0.934 8.834 5.29 11.289 6.794l0.778 0.484-0.467 2.438c-2.213 11.48-6.933 20.643-14.592 28.353-1.591 1.591-5.221 4.772-5.463 4.772-0.069 0-0.968-0.501-2.005-1.106-1.66-0.985-8.471-4.806-8.955-5.031-0.086-0.035 0.017-0.207 0.259-0.38 1.262-0.916 3.717-3.060 4.979-4.339 7.451-7.624 11.67-18.136 12.085-30.082 0.052-1.625 0.138-2.974 0.173-2.974s0.899 0.484 1.919 1.072zM380.175 400.489c1.573 1.072 3.579 2.438 4.443 3.043l1.608 1.106-0.104 0.692c-0.138 0.83-1.418 5.221-2.040 6.967-1.85 5.117-4.772 10.563-7.797 14.505-2.974 3.838-6.725 7.486-10.874 10.563l-1.884 1.4-0.968-0.709c-1.331-0.951-4.668-3.216-7.382-4.996l-2.282-1.47 0.813-0.519c5.532-3.475 10.719-9.353 13.952-15.802 2.611-5.187 4.184-10.632 4.841-16.787l0.311-2.853 2.265 1.47c1.227 0.795 3.527 2.334 5.1 3.389zM393.28 409.859c3.51 2.645 4.668 3.561 7.642 5.999 0.813 0.674 1.504 1.245 1.539 1.262 0.138 0.104-1.314 4.27-2.265 6.535-1.902 4.564-4.581 9.18-7.572 13.053-1.677 2.144-6.016 6.5-8.298 8.316-1.003 0.778-2.974 2.178-4.374 3.112l-2.576 1.677-2.351-2.005c-1.314-1.106-3.51-2.922-4.91-4.028l-2.541-2.023 1.591-0.951c4.927-2.939 9.422-7.296 12.88-12.5 3.561-5.359 6.449-13.053 7.33-19.536 0.121-0.899 0.242-1.625 0.277-1.625s1.677 1.21 3.631 2.714zM408.061 421.961c2.438 2.178 4.201 3.838 7.78 7.313l1.867 1.815-0.743 1.815c-1.591 3.942-4.374 8.99-6.898 12.534-4.512 6.293-10.84 11.773-17.911 15.508l-2.109 1.106-4.46-4.409-4.46-4.426 2.057-1.089c7.572-3.994 13.693-10.442 17.824-18.793 1.954-3.942 3.682-8.921 4.27-12.413 0.121-0.64 0.242-1.158 0.277-1.158s1.158 0.985 2.507 2.196zM423.984 437.919c3.371 3.769 7.365 8.627 7.365 8.955 0 0.259-1.521 3.164-2.714 5.221-2.593 4.426-5.221 7.814-9.025 11.583-4.011 4.011-7.417 6.5-12.379 9.094-2.265 1.193-5.619 2.697-5.809 2.628-0.052-0.035-0.951-1.106-1.988-2.386-2.057-2.576-5.688-6.846-5.965-7.019-0.104-0.052 0.432-0.363 1.176-0.657 1.833-0.761 4.322-2.040 5.982-3.060 5.117-3.181 10.114-8.281 13.675-13.986 2.265-3.596 4.685-9.111 5.671-12.863l0.398-1.539 0.83 0.934c0.467 0.519 1.712 1.902 2.783 3.095zM436.657 453.738c2.334 3.181 6.967 10.010 6.967 10.252 0 0.225-2.922 4.633-4.322 6.5-0.674 0.916-1.902 2.403-2.732 3.319s-1.677 1.884-1.867 2.126c-0.519 0.622-4.080 3.786-5.532 4.91-3.112 2.42-6.898 4.668-10.65 6.328-2.749 1.227-6.898 2.68-7.054 2.49-0.069-0.086-0.916-1.349-1.902-2.818s-2.541-3.717-3.458-4.996l-1.66-2.334 1.902-0.64c8.627-2.887 16.113-8.8 21.68-17.098 2.023-3.025 4.218-7.348 5.325-10.477l0.484-1.331 0.398 0.501c0.225 0.277 1.314 1.746 2.42 3.268zM446.113 467.586c0.052 0.138 0.916 1.556 1.902 3.147 1.954 3.147 3.855 6.5 5.359 9.526l0.985 1.936-0.83 1.072c-7.901 10.39-16.372 16.58-27.541 20.141-2.334 0.726-5.48 1.539-5.584 1.4-0.035-0.035-0.536-0.968-1.106-2.057-1.037-1.971-4.097-7.244-4.737-8.177-0.398-0.536-0.484-0.484 1.4-0.899 5.429-1.245 11.843-4.495 16.424-8.35 1.988-1.66 5.031-4.772 6.639-6.777 2.282-2.835 4.789-6.864 6.155-9.889 0.328-0.743 0.657-1.331 0.709-1.349 0.069 0 0.173 0.121 0.225 0.277zM457.472 488.937c2.075 4.893 4.702 11.756 4.927 12.932 0.086 0.398-0.19 0.743-2.23 2.801-5.653 5.688-11.151 9.457-17.842 12.24-4.115 1.729-9.699 3.181-14.28 3.734l-0.985 0.121-0.38-1.176c-0.519-1.608-3.216-8.42-3.717-9.405l-0.398-0.795 2.005-0.311c8.748-1.331 16.39-5.377 23.288-12.275 2.922-2.922 5.169-5.74 7.192-9.007 0.709-1.158 1.158-1.712 1.227-1.573 0.069 0.121 0.605 1.349 1.193 2.714zM465.494 511.862c0.916 3.302 1.936 7.33 2.576 10.235 0.432 1.867 0.432 1.988 0.156 2.213-1.331 1.055-4.737 3.371-6.483 4.426-6.414 3.873-13.52 6.362-20.504 7.192-2.835 0.346-6.985 0.553-8.558 0.432-1.349-0.104-1.521-0.156-1.591-0.484-0.605-2.783-1.573-6.846-2.040-8.506l-0.571-2.092 2.611-0.104c10.097-0.398 19.847-4.91 27.886-12.915 1.642-1.625 4.305-4.651 4.772-5.411 0.225-0.363 0.467 0.311 1.746 5.014zM469.781 530.758c0.882 4.702 2.178 13.917 2.005 14.073-0.035 0.035-1.003 0.571-2.144 1.176-6.449 3.492-12.828 5.584-19.709 6.466-4.426 0.571-11.601 0.311-16.199-0.553-0.432-0.086-0.467-0.156-0.571-1.418-0.104-1.193-0.277-2.87-0.536-5.048-0.052-0.432-0.207-1.504-0.346-2.369-0.138-0.882-0.242-1.66-0.242-1.746 0-0.069 0.795-0.035 1.781 0.086 4.633 0.571 10.546 0.069 15.335-1.279 6.622-1.85 13.865-5.913 18.845-10.563 0.709-0.657 1.314-1.193 1.331-1.176 0 0 0.207 1.072 0.45 2.351zM472.755 555.135c0.138 2.144 0.311 5.359 0.363 7.175l0.104 3.285-1.176 0.484c-12.811 5.308-24.688 6.155-36.773 2.645-0.83-0.242-1.521-0.45-1.556-0.45-0.017 0-0.035-2.576-0.052-5.723-0.017-5.705-0.017-5.723 0.346-5.636 5.187 1.227 7.244 1.504 10.961 1.504 4.581 0 8.817-0.692 13.347-2.161 4.651-1.521 9.37-3.89 13.139-6.604l0.778-0.553 0.121 1.072c0.069 0.588 0.242 2.818 0.398 4.962zM473.118 575.051c-0.069 2.887-0.225 6.518-0.328 8.091l-0.207 2.853-2.075 0.571c-12.845 3.527-24.602 2.835-36.341-2.144-1.712-0.726-1.936-0.864-1.867-1.176 0.156-0.622 0.605-4.599 0.813-7.14 0.104-1.349 0.242-2.541 0.311-2.628 0.069-0.121 0.64 0.035 1.591 0.398 2.956 1.158 6.449 2.005 9.837 2.369 2.732 0.294 8.921 0.121 11.48-0.346 5.429-0.968 10.857-2.835 15.3-5.273 0.813-0.432 1.504-0.795 1.539-0.795s0.017 2.351-0.052 5.221zM434.461 590.092c6.967 3.423 14.401 4.702 22.562 3.855 4.858-0.501 10.494-1.919 14.384-3.631l0.916-0.415-0.069 0.38c-0.052 0.207-0.138 0.847-0.19 1.418-0.242 2.42-0.64 5.567-1.037 8.212-0.328 2.299-1.141 7.157-1.193 7.209-0.138 0.138-4.616 0.795-6.933 1.003-11.601 1.072-22.026-1.141-32.053-6.829l-1.85-1.055 0.536-2.196c0.294-1.21 0.847-3.717 1.21-5.567 0.761-3.959 0.743-3.855 0.916-3.769 0.069 0.035 1.331 0.657 2.801 1.383zM428.393 605.773c2.265 1.781 6.794 4.080 10.425 5.29 4.72 1.573 8.869 2.213 14.228 2.213 5.083 0 9.267-0.588 14.142-2.005 1.66-0.484 2.023-0.536 1.954-0.311-0.035 0.156-0.207 0.899-0.38 1.66-0.847 3.924-3.043 12.707-3.25 13.001-0.052 0.069-4.391 0.571-6.639 0.761-3.060 0.259-9.198 0.121-12.050-0.259-8.177-1.106-14.868-3.579-22.077-8.16l-1.141-0.743 0.83-2.265c0.916-2.438 2.369-6.846 2.853-8.61 0.173-0.588 0.346-1.072 0.38-1.072 0.052 0 0.38 0.225 0.726 0.501zM425.644 624.877c5.031 3.112 10.771 5.117 17.289 5.999 2.178 0.311 9.751 0.311 11.929 0 2.628-0.363 5.913-1.020 7.797-1.591 0.968-0.277 1.781-0.484 1.815-0.45 0.121 0.121-2.403 7.503-3.838 11.238l-1.366 3.561-1.297 0.121c-1.902 0.19-8.8-0.207-12.102-0.692-10.252-1.504-18.948-5.325-26.572-11.704l-1.418-1.193 0.692-1.4c0.657-1.366 1.988-4.236 2.714-5.913l0.363-0.813 1.245 0.951c0.674 0.519 1.919 1.383 2.749 1.884zM419.524 638.466c5.826 4.581 12.897 7.469 21.248 8.662 2.645 0.38 8.489 0.536 11.151 0.277 1.712-0.156 5.688-0.778 5.895-0.916 0.086-0.052 0.156-0.035 0.156 0.035 0 0.45-5.169 11.065-6.587 13.537l-0.536 0.916-1.227-0.104c-2.697-0.242-3.25-0.311-5.895-0.726-10.356-1.573-19.432-5.48-26.797-11.549-1.902-1.556-5.982-5.515-5.982-5.792 0-0.086 0.64-1.227 1.435-2.541 0.795-1.331 1.815-3.060 2.265-3.873l0.813-1.47 1.158 1.089c0.64 0.588 1.936 1.694 2.904 2.455zM409.652 649.15c5.567 6.57 14.004 11.41 23.512 13.52 4.184 0.934 5.965 1.106 11.255 1.124h4.858l-1.21 1.988c-1.85 3.025-4.322 6.777-5.982 9.059-0.813 1.141-1.539 2.126-1.591 2.213-0.207 0.311-6.829-1.245-10.529-2.472-6.328-2.075-12.396-5.308-17.116-9.076-3.043-2.438-7.763-7.399-9.647-10.131l-0.536-0.778 1.591-2.161c0.882-1.176 2.057-2.818 2.628-3.648 0.571-0.813 1.089-1.47 1.141-1.452s0.778 0.83 1.625 1.815zM400.039 659.679c1.072 1.781 3.181 4.426 5.031 6.345 6.016 6.224 14.211 10.615 23.53 12.621 2.42 0.519 4.184 0.761 7.348 1.020l2.455 0.207-1.988 2.42c-2.662 3.25-4.789 5.671-6.933 7.901l-1.781 1.833-1.331-0.432c-6.362-2.075-11.514-4.495-16.113-7.572-2.956-1.971-5.048-3.682-7.59-6.189-3.319-3.302-5.619-6.189-8.091-10.218-1.21-2.005-1.245-2.075-0.951-2.42 0.156-0.19 1.106-1.262 2.109-2.351 1.003-1.106 2.213-2.49 2.68-3.077 0.484-0.571 0.899-1.055 0.951-1.055s0.346 0.432 0.674 0.968zM390.116 669.965c0.398 1.003 1.833 3.561 2.956 5.238 4.357 6.552 11.22 12.119 19.259 15.646 3.319 1.452 8.904 3.095 12.119 3.544l0.795 0.121-1.746 1.66c-3.198 3.077-10.045 8.852-10.477 8.852-0.415 0-5.498-2.611-7.78-3.976-10.045-6.051-16.908-13.779-21.663-24.394l-0.605-1.314 3.319-3.043c1.815-1.66 3.354-3.043 3.406-3.043 0.069-0.017 0.242 0.311 0.415 0.709zM380.054 681.341c3.198 8.35 9.716 15.854 18.205 20.936 3.198 1.936 6.051 3.25 9.785 4.564 1.833 0.64 1.85 0.657 1.47 0.934-2.040 1.556-7.088 4.893-10.736 7.088l-2.040 1.245-2.455-1.625c-2.524-1.694-5.584-4.046-7.106-5.48-0.467-0.45-1.106-1.037-1.4-1.279-0.743-0.622-3.89-4.149-5.135-5.774-3.337-4.357-6.051-9.509-8.039-15.266l-0.864-2.524 2.092-1.573c1.158-0.864 2.818-2.109 3.665-2.783l1.556-1.21 0.156 0.467c0.069 0.259 0.45 1.279 0.847 2.282zM367.865 688.205c0.985 5.221 3.89 11.341 7.607 16.13 1.418 1.815 4.824 5.325 6.691 6.898 2.541 2.161 5.48 4.149 8.834 5.982l1.936 1.037-3.838 2.023c-3.648 1.919-9.284 4.633-9.612 4.633-0.294 0-2.645-2.092-4.927-4.391-6.691-6.708-11.151-14.419-13.589-23.443-0.363-1.349-1.193-5.083-1.141-5.1 0.432-0.242 5.705-3.579 6.518-4.132 0.622-0.432 1.158-0.778 1.21-0.778 0.052-0.017 0.19 0.501 0.311 1.141zM356.144 699.667c0.83 3.994 2.939 9.215 5.187 12.794 3.025 4.841 7.693 9.837 12.517 13.399l1.366 1.003-1.573 0.657c-2.49 1.037-6.466 2.541-9.319 3.544l-2.645 0.934-1.66-1.954c-7.469-8.713-11.687-18.654-12.776-30.030l-0.104-1.124 2.991-1.539c1.642-0.864 3.492-1.833 4.115-2.196l1.124-0.64 0.207 1.677c0.104 0.916 0.363 2.472 0.571 3.475zM342.676 705.804c0.899 8.886 4.962 17.531 11.67 24.826 0.847 0.916 1.798 1.884 2.109 2.144 0.294 0.259 0.553 0.519 0.553 0.588 0 0.225-13.278 3.786-13.416 3.596-4.184-6.224-6.622-11.514-8.195-17.755-0.951-3.803-1.556-8.523-1.556-12.102v-2.334l2.040-0.83c1.106-0.45 3.043-1.279 4.27-1.815l2.248-1.003 0.035 1.4c0.017 0.761 0.121 2.23 0.242 3.285zM328.69 709.729c-0.242 9.111 2.645 17.963 8.523 26.192 0.795 1.106 1.435 2.040 1.418 2.057-0.173 0.173-12.119 1.971-13.018 1.971-0.45 0-2.628-4.979-3.665-8.385-1.055-3.458-1.677-6.31-2.126-9.768-0.242-1.798-0.311-9.526-0.104-11.065l0.138-0.951 4.357-1.504c2.403-0.813 4.409-1.487 4.46-1.504s0.069 1.331 0.017 2.956zM196.899 710.472c8.955 2.749 17.012 4.633 26.296 6.137 3.613 0.571 11.168 1.556 12.067 1.556 0.484 0 0.571 0.052 0.501 0.294-0.052 0.173-0.259 0.847-0.467 1.521-0.45 1.47-1.331 5.238-1.47 6.31-0.052 0.432-0.138 0.951-0.19 1.158l-0.069 0.38-1.694-0.605c-7.192-2.593-18.118-7.33-26.4-11.445-4.46-2.213-12.188-6.258-12.188-6.379 0-0.052 0.121-0.035 0.277 0.017 0.156 0.069 1.66 0.536 3.337 1.055zM314.375 712.72c-0.951 5.671-0.138 13.381 2.075 19.45 1.106 3.060 2.714 6.518 3.596 7.814 0.328 0.467 0.328 0.484 0.017 0.484-0.173 0-1.055 0.086-1.954 0.173s-3.233 0.207-5.187 0.259c-1.954 0.052-4.011 0.138-4.581 0.173l-1.055 0.086-0.45-1.418c-1.141-3.596-1.884-7.14-2.334-11.117-0.069-0.674-0.138-3.043-0.121-5.273 0.017-3.302 0.086-4.547 0.415-6.656 0.207-1.435 0.398-2.68 0.398-2.783s1.176-0.467 2.611-0.813c1.435-0.363 3.544-0.899 4.685-1.227 1.141-0.311 2.092-0.571 2.092-0.553 0.017 0-0.069 0.64-0.207 1.4zM299.714 715.019c-0.207 0.346-0.813 4.374-0.985 6.673-0.311 4.097 0.19 9.076 1.331 13.416 0.432 1.66 1.539 5.014 1.833 5.584 0.156 0.294 0.017 0.311-2.576 0.277-2.507-0.035-4.443-0.121-8.385-0.432l-1.487-0.104-0.207-1.158c-0.311-1.608-0.294-1.573-0.432-2.611-0.052-0.519-0.138-1.193-0.19-1.47-0.035-0.294-0.121-2.075-0.173-3.976-0.138-4.184 0.156-7.624 0.985-11.67 0.19-0.899 0.415-1.919 0.501-2.265l0.173-0.605 3.752-0.657c2.075-0.363 4.201-0.761 4.72-0.882 1.176-0.277 1.245-0.294 1.141-0.121zM284.224 717.906c-0.294 0.743-0.709 2.68-1.020 4.737-0.778 4.875-0.501 11.514 0.657 16.026l0.328 1.297-0.536-0.104c-0.311-0.052-1.556-0.207-2.801-0.363-1.227-0.138-3.682-0.501-5.446-0.778s-3.25-0.501-3.302-0.501c-0.225 0-0.328-4.201-0.138-6.812 0.259-4.011 1.158-9.007 2.161-12.050l0.259-0.813 0.985-0.104c0.536-0.052 1.539-0.138 2.196-0.207 0.674-0.052 2.334-0.242 3.717-0.415 3.44-0.415 3.129-0.415 2.939 0.086zM247.053 719.030c2.23 0.086 4.305 0.173 4.616 0.173h0.553l-0.259 0.813c-0.38 1.262-1.227 4.564-1.349 5.238-0.363 2.334-0.467 3.285-0.605 5.325-0.086 1.262-0.19 2.334-0.242 2.386-0.121 0.121-2.611-0.588-7.434-2.144l-3.613-1.141 0.121-0.934c0.225-1.85 1.677-6.95 2.783-9.768 0.086-0.259 0.242-0.294 0.743-0.225 0.346 0.069 2.455 0.19 4.685 0.277zM268.214 719.739c-0.415 1.176-1.055 4.011-1.383 6.207-0.328 2.109-0.45 9.267-0.173 10.598l0.121 0.674-0.571-0.121c-1.573-0.311-6.898-1.504-8.921-2.005-2.265-0.553-2.299-0.571-2.213-1.003 0.052-0.242 0.138-1.072 0.19-1.833 0.259-3.319 1.4-8.679 2.541-11.843l0.398-1.124 3.89-0.121c2.144-0.069 4.443-0.138 5.1-0.173 0.674-0.035 1.227-0.052 1.262-0.035 0.017 0-0.086 0.363-0.242 0.778z"></path>
<path fill="#000" d="M400.748 147.056c0 0.086 0.484 0.432 1.072 0.761 1.66 0.951 5.221 3.337 6.76 4.564 5.688 4.443 8.558 8.229 10.753 14.142 0.328 0.882 0.571 1.625 0.536 1.66-0.052 0.035-1.072-0.778-2.299-1.781-8.056-6.725-14.868-10.857-21.403-13.036-4.564-1.504-8.212-2.092-13.053-2.092-4.149 0-7.417 0.415-13.087 1.677-0.795 0.19-0.363 0.398 0.795 0.398 1.66 0 5.999 0.45 8.333 0.882 9.733 1.746 19.259 6.345 27.817 13.45 1.902 1.591 4.772 4.063 5.619 4.841 4.115 3.803 7.659 7.054 8.817 8.056 0.761 0.674 1.608 1.418 1.902 1.677 1.539 1.366 5.411 4.46 8.385 6.691 13.572 10.183 24.861 15.491 36.721 17.254 2.749 0.398 8.852 0.398 11.514-0.017 9.854-1.521 17.894-6.051 22.181-12.482 2.161-3.25 3.51-6.76 4.789-12.379 2.109-9.388 2.68-11.393 3.976-13.986 2.42-4.893 6.051-7.832 12.966-10.511 3.994-1.539 6.829-2.109 10.529-2.092 5.947 0.017 11.030 2.057 17.133 6.915 3.095 2.455 8.61 8.177 12.396 12.88 0.882 1.089 0.674 0.363-0.519-1.902-2.196-4.184-4.927-7.814-8.61-11.445-1.279-1.262-3.060-2.887-3.959-3.613-5.446-4.357-12.102-7.711-17.755-8.921-2.455-0.519-7.261-0.571-9.025-0.086-2.369 0.674-6.397 2.524-8.731 4.046-5.152 3.337-8.834 7.469-11.773 13.278-1.521 2.991-2.559 5.601-4.547 11.497-1.85 5.463-2.507 7.209-3.492 9.163-2.196 4.391-5.135 7.278-8.731 8.575-3.043 1.106-8.748 1.971-12.966 1.971-6.12-0.017-11.030-1.279-17.202-4.409-2.956-1.521-9.44-5.342-11.117-6.587-2.835-2.092-7.192-6.812-13.779-14.937-6.258-7.711-9.526-11.428-13.243-15.024-6.137-5.947-11.117-8.765-16.182-9.128-0.864-0.052-1.521-0.035-1.521 0.052z"></path>
<path fill="#000" d="M214.464 225.391c0.052 0.277 0.242 1.452 0.45 2.645 1.262 7.572 4.547 18.153 8.333 26.815 1.418 3.233 1.608 3.648 3.129 6.725 4.063 8.143 8.056 14.142 12.171 18.257 3.803 3.803 7.14 5.308 9.975 4.478 6.656-1.919 16.096-12.327 22.562-24.861l1.331-2.559 0.277 1.349c0.415 2.005 0.622 4.633 0.726 9.647 0.19 8.039 0.605 11.341 1.694 13.52 0.795 1.539 2.213 2.455 3.268 2.092 1.262-0.432 2.991-3.25 5.29-8.627 3.942-9.146 6.397-13.26 9.474-15.905 4.253-3.682 9.007-3.129 14.54 1.694 0.692 0.605 1.279 1.089 1.314 1.089 0.052 0 0.173-0.363 0.277-0.83 0.346-1.349 1.521-3.579 2.42-4.564 1.435-1.573 3.337-2.386 5.619-2.386 3.181 0 6.915 1.833 9.457 4.633 0.985 1.089 2.317 3.181 2.507 3.924 0.156 0.64 0.398 0.467 0.743-0.519 0.882-2.455 2.645-4.772 4.218-5.515 2.057-0.951 4.616-0.588 7.175 1.037 1.383 0.882 4.080 3.682 5.273 5.446 0.536 0.813 0.985 1.573 0.985 1.694 0 0.104 0.086 0.19 0.173 0.19 0.311 0 0.19-0.726-0.588-3.821-2.714-10.771-6.777-17.133-12.137-19.017-0.847-0.294-1.314-0.346-2.749-0.294-1.954 0.069-3.077 0.484-4.668 1.677l-0.882 0.674-0.571-1.020c-0.847-1.539-2.403-3.561-3.769-4.893-2.317-2.265-4.927-3.648-7.676-4.080-3.544-0.571-6.864 1.193-8.523 4.495-0.346 0.692-0.622 1.4-0.622 1.573s-0.069 0.363-0.173 0.415c-0.086 0.052-0.173 0.035-0.173-0.069 0-0.432-2.178-3.354-3.25-4.374-1.798-1.694-3.631-2.628-6.051-3.095-1.383-0.259-5.273-0.104-6.691 0.277-4.53 1.21-7.987 2.853-13.070 6.224-2.144 1.418-6.967 5.066-7.417 5.601-0.052 0.052-0.985 0.899-2.075 1.867-3.613 3.198-8.005 7.849-10.529 11.168-1.21 1.591-1.297 1.66-2.057 1.781-1.245 0.19-3.648-0.035-4.875-0.467-4.91-1.677-8.973-5.601-17.202-16.58-5.74-7.659-8.298-10.667-11.67-13.744-1.781-1.625-3.838-3.112-5.308-3.873l-0.743-0.363 0.086 0.467z"></path>
<path fill="#000" d="M315.775 256.614c-1.435 0.571-2.161 1.349-2.697 2.939-0.709 2.023-0.173 5.256 1.383 8.506 1.003 2.126 1.833 3.406 3.994 6.31 6.328 8.42 10.027 15.681 11.168 21.87 0.45 2.403 0.415 5.844-0.069 7.987-0.83 3.596-2.939 7.434-5.463 9.906-0.432 0.415-0.795 0.83-0.795 0.916 0 0.225 1.124-0.017 2.282-0.484 3.579-1.452 7.036-5.55 9.042-10.771 1.452-3.769 2.161-7.849 2.161-12.482 0-7.227-1.625-13.589-5.308-20.798-3.924-7.676-8.644-12.742-12.932-13.883-1.037-0.294-2.057-0.294-2.766-0.017z"></path>
<path fill="#000" d="M335.138 258.533c-2.42 1.124-2.68 4.789-0.657 8.834 0.934 1.833 1.971 3.389 3.942 5.809 5.671 6.967 7.676 10.546 8.471 15.024 0.467 2.662 0.242 5.567-0.709 8.904-0.45 1.608-1.919 5.256-2.507 6.293-0.19 0.311-0.294 0.622-0.242 0.674 0.104 0.121 3.561-3.354 4.46-4.495 3.717-4.685 5.273-10.287 4.547-16.372-0.553-4.581-2.092-9.405-4.53-14.194-2.662-5.238-5.584-8.627-8.713-10.148-1.158-0.553-3.233-0.726-4.063-0.328z"></path>
<path fill="#000" d="M299.178 261.783c-2.991 1.746-3.631 7.071-1.573 13.174 0.328 0.968 1.227 3.147 2.005 4.858 3.631 7.953 5.619 13.917 6.466 19.346 0.363 2.334 0.311 6.068-0.086 8.056-0.709 3.337-2.092 5.913-4.426 8.143-1.366 1.297-3.786 3.025-4.495 3.198-0.225 0.069-0.398 0.173-0.398 0.259 0 0.277 1.608 0.173 2.922-0.19 2.524-0.709 4.357-1.884 6.846-4.391 3.060-3.060 5.135-6.57 6.639-11.186 1.262-3.89 1.729-6.985 1.746-11.652 0-3.492-0.156-5.204-0.813-8.471-0.882-4.495-2.904-10.339-4.841-13.917-1.712-3.181-4.097-5.982-5.947-6.985-1.279-0.709-3.060-0.813-4.046-0.242z"></path>
<path fill="#000" d="M268.128 274.075c-0.363 1.988-0.415 2.783-0.415 6.258 0.017 4.288 0.225 5.947 1.245 9.509 2.161 7.538 7.088 15.076 13.814 21.075 1.971 1.763 4.184 3.475 4.322 3.337 0.069-0.052-0.225-0.484-0.64-0.951-1.867-2.075-3.458-5.083-4.028-7.624-0.415-1.85-0.363-4.201 0.138-6.431 0.45-1.988 1.176-3.821 3.44-8.886 2.524-5.619 3.095-7.814 2.991-11.324-0.052-1.193-0.19-2.541-0.311-3.008-0.277-0.985-0.225-1.020-1.625 1.21-2.023 3.216-5.187 7.278-7.78 9.975l-1.297 1.331-0.795-0.553c-1.245-0.916-3.233-3.095-4.046-4.478-1.003-1.729-1.833-3.821-3.181-8.022-0.64-1.954-1.21-3.579-1.279-3.613-0.069-0.052-0.328 0.934-0.553 2.196z"></path>
<path fill="#000" d="M294.424 321.186c0 0.069 0.761 0.571 1.694 1.089 0.916 0.536 2.645 1.539 3.838 2.23 7.434 4.305 16.977 9.422 33.54 17.98 8.955 4.616 10.581 5.463 15.733 8.177 24.636 12.966 40.524 22.613 55.323 33.626 9.076 6.76 16.39 13.018 24.083 20.591 17.565 17.323 30.134 35.545 40.818 59.196 3.008 6.656 9.249 21.628 11.583 27.817 4.046 10.702 7.97 25.466 9.854 37.049 1.694 10.408 2.628 18.775 3.129 28.353 0.328 6.155 0.328 19.83 0 25.76-0.225 4.080-0.657 9.63-0.864 11.151-0.035 0.328-0.121 1.072-0.173 1.642-0.225 2.351-0.985 7.987-1.487 10.978-2.092 12.811-5.256 24.135-9.128 32.744-0.294 0.657-0.501 1.245-0.432 1.297 0.156 0.173 3.786-3.717 5.463-5.861 2.853-3.631 5.498-7.918 7.745-12.551 2.87-5.93 5.169-12.188 9.526-26.002 2.697-8.489 4.443-11.583 6.552-11.583 2.628 0 6.086 5.152 11.186 16.683 0.709 1.608 1.366 3.008 1.435 3.077 0.259 0.277 0.398-3.198 0.277-7.227-0.311-11.67-2.057-20.158-6.016-29.131-1.349-3.043-2.922-6.051-5.515-10.494-5.014-8.592-6.483-11.22-8.005-14.315-3.458-7.019-4.599-10.909-4.374-14.851 0.259-4.478 2.524-7.278 6.812-8.437 1.763-0.467 5.187-0.501 7.227-0.069 5.014 1.072 9.768 3.631 13.52 7.261 0.588 0.571 1.124 0.985 1.193 0.916 0.069-0.052-0.328-1.418-0.864-3.008-4.097-12.102-9.699-19.986-18.637-26.261-1.037-0.726-3.803-2.524-6.155-3.994-7.555-4.737-9.872-6.449-12.949-9.578-3.838-3.907-6.656-8.247-7.814-11.998-0.467-1.504-0.657-4.305-0.38-5.619 0.622-2.939 2.956-5.325 6.5-6.708 2.541-0.985 4.858-1.383 8.126-1.383 5.861 0 11.808 1.712 16.493 4.754 0.795 0.519 1.47 0.899 1.504 0.864 0.104-0.104-2.732-4.806-4.046-6.691-2.092-3.025-4.080-5.429-6.431-7.797-5.671-5.688-10.39-8.523-22.112-13.243-13.399-5.394-19.83-9.405-27.437-17.064-5.809-5.895-8.748-11.307-8.731-16.182 0-4.53 2.68-7.728 7.538-9.007 1.072-0.294 1.902-0.363 3.717-0.38 3.734 0 7.175 0.864 11.168 2.818 4.028 1.988 7.866 4.841 11.359 8.471 1.037 1.055 1.919 1.902 1.954 1.85 0.138-0.121-2.334-5.498-3.51-7.642-2.455-4.46-4.789-7.607-8.16-10.978-3.942-3.942-8.108-6.829-14.28-9.906-8.091-4.028-16.338-7.002-40.628-14.609-1.521-0.484-4.046-1.279-5.619-1.763-13.191-4.132-24.031-7.711-28.613-9.422-8.662-3.25-15.093-6.639-17.773-9.37-1.245-1.262-1.608-1.815-1.936-2.887-0.847-2.835 2.299-5.187 8.713-6.5 8.298-1.694 20.781-0.813 26.728 1.884 0.726 0.328 1.124 0.432 1.124 0.311 0-0.277-2.853-2.939-4.789-4.478-6.967-5.55-15.836-9.042-26.624-10.494-4.737-0.64-7.106-0.778-13.883-0.778-7.745 0-9.733 0.104-23.080 1.279-2.178 0.19-4.478 0.38-5.1 0.432s-1.435 0.138-1.815 0.173c-2.248 0.277-9.198 0.605-12.448 0.605-6.691 0-11.013-0.709-14.298-2.351-1.245-0.622-1.349-0.657-1.349-0.45z"></path>
<path fill="#000" d="M149.356 323.417c-0.467 1.245-0.864 3.077-1.037 4.806-0.398 4.218 0.294 9.007 2.438 16.683 1.037 3.734 1.867 6.933 2.248 8.696 0.709 3.233 0.83 6.587 0.311 8.765-0.277 1.158-1.314 3.25-1.746 3.527-0.207 0.138-1.279 0.484-2.369 0.795-7.175 2.005-15.525 5.273-22.389 8.731-11.238 5.671-18.032 11.618-19.882 17.392-0.311 1.003-0.398 1.677-0.398 3.043 0 1.902 0.19 2.766 0.985 4.478l0.501 1.055-0.761-0.225c-2.213-0.657-5.031-0.38-6.777 0.657-1.936 1.176-3.544 3.544-4.097 6.034-0.328 1.556-0.225 4.858 0.242 6.656 0.398 1.573 1.227 3.717 1.954 5.031l0.501 0.899-0.743 0.207c-2.040 0.536-4.080 2.248-4.979 4.167-2.126 4.564-0.104 10.978 5.774 18.309 1.694 2.109 5.688 6.328 5.757 6.086 0.035-0.104-0.138-0.571-0.363-1.037-0.674-1.331-1.608-4.288-1.919-5.999-0.328-1.884-0.328-3.129-0.017-4.616 0.484-2.265 1.573-3.717 3.475-4.599 0.968-0.45 1.176-0.484 3.198-0.467 1.349 0.017 2.507 0.121 3.077 0.277 0.484 0.138 0.899 0.19 0.899 0.121 0-0.086-0.225-0.501-0.519-0.951-2.369-3.752-2.749-9.284-0.864-13.122 0.847-1.763 2.023-2.974 3.579-3.752 1.072-0.519 1.314-0.571 3.077-0.622 1.591-0.035 2.161 0.017 3.423 0.363l1.521 0.415-0.086-0.38c-0.536-2.126-0.64-6.086-0.207-7.935 0.882-3.7 3.302-5.861 7.642-6.76 3.579-0.743 7.607-0.484 17.479 1.106 7.019 1.141 9.388 1.037 10.045-0.432 0.363-0.761 0.242-1.971-0.294-3.095-1.141-2.403-3.458-4.685-10.2-10.079-4.063-3.233-6.604-5.498-7.278-6.431l-0.311-0.45 1.487 0.156c1.435 0.138 5.705 0.052 7.555-0.156 11.998-1.314 28.457-7.659 34.75-13.416 0.882-0.795 2.109-2.334 1.954-2.455-0.017-0.035-0.951-0.709-2.040-1.539-3.579-2.662-6.414-5.152-10.218-8.938-7.036-7.019-10.494-11.48-20.867-26.936-1.677-2.49-3.112-4.53-3.198-4.53-0.069 0-0.207 0.207-0.311 0.467z"></path>
<path fill="#000" d="M153.349 387.125c0 0.086 0.45 0.692 1.003 1.331 4.426 5.048 6.794 8.817 7.469 11.808 0.207 0.934 0.501 3.596 0.38 3.596-0.017 0-0.605 0.104-1.297 0.242-3.821 0.761-7.434 1.106-11.877 1.124-1.85 0.017-3.389 0.069-3.423 0.104-0.138 0.138 1.936 1.988 3.129 2.801 2.541 1.694 5.619 2.645 11.462 3.51 5.256 0.778 7.002 1.176 9.37 2.144 1.573 0.622 3.838 2.196 4.875 3.354 1.66 1.833 3.233 4.806 3.873 7.278 0.242 0.882 0.726 1.245 0.571 0.432-0.052-0.277-0.156-1.124-0.207-1.884-0.692-8.817-4.512-18.654-9.768-25.068-1.349-1.642-4.46-4.616-6.086-5.844-1.556-1.158-4.46-2.922-5.844-3.544-2.628-1.176-3.631-1.556-3.631-1.383z"></path>
<path fill="#000" d="M129.681 406.644c-2.282 0.432-3.406 2.628-2.956 5.74 0.622 4.27 3.821 9.854 9.094 15.854 5.29 6.034 11.825 10.339 18.931 12.448 8.143 2.42 16.597 1.331 20.954-2.714 0.899-0.83 1.763-1.919 1.625-2.057-0.052-0.052-0.692 0.207-1.435 0.588-2.299 1.141-5.377 1.936-7.503 1.936-1.020 0-3.51-0.432-4.616-0.795-2.766-0.899-6.12-3.060-8.921-5.74-3.994-3.855-6.328-6.898-12.482-16.286-1.487-2.248-2.265-3.233-3.7-4.685-3.319-3.337-6.362-4.789-8.99-4.288z"></path>
<path fill="#000" d="M116.231 417.449c-0.864 0.432-1.867 1.625-2.317 2.766-0.346 0.882-0.398 1.314-0.415 3.354 0 3.198 0.692 6.051 2.472 10.027 5.411 12.171 14.419 21.023 25.103 24.619 3.164 1.055 5.688 1.504 8.644 1.487 3.077 0 5.014-0.398 7.14-1.452 1.366-0.692 3.423-2.23 3.216-2.438-0.035-0.035-0.571 0.052-1.193 0.173-1.712 0.38-5.204 0.519-6.967 0.277-4.564-0.605-8.074-2.42-11.722-6.068-4.374-4.374-7.745-10.339-11.48-20.314-2.005-5.377-3.527-8.022-5.947-10.321-1.746-1.677-2.974-2.282-4.685-2.351-0.934-0.035-1.452 0.035-1.85 0.242z"></path>
<path fill="#000" d="M106.757 435.031c-0.864 0.484-1.729 1.746-1.971 2.887-1.037 4.806 1.919 12.24 7.745 19.536 4.46 5.584 9.059 8.8 14.367 10.045 2.386 0.571 7.054 0.571 9.768 0.017 2.386-0.484 3.198-0.709 3.198-0.882 0-0.069-0.553-0.19-1.245-0.259s-1.988-0.259-2.904-0.45c-6.466-1.349-10.702-3.907-13.641-8.229-1.642-2.438-2.697-4.858-4.875-11.238-1.573-4.651-2.109-5.861-3.371-7.78-2.196-3.337-5.031-4.806-7.071-3.648z"></path>
<path fill="#000" d="M291.398 440.633c-5.965 0.277-12.863 1.539-17.894 3.285-5.636 1.936-11.22 5.014-16.009 8.817-2.317 1.85-7.434 6.933-9.422 9.388-4.702 5.774-9.267 12.949-13.468 21.144l-1.124 2.196h-1.418c-5.601 0-10.978-3.579-13.191-8.8-1.106-2.576-1.556-5.135-1.47-8.316 0.207-7.832 3.976-16.251 11.376-25.38 0.571-0.692 0.985-1.314 0.934-1.366-0.173-0.156-4.149 2.109-6.518 3.734-2.87 1.954-6.552 5.152-8.765 7.59-0.847 0.934-1.556 1.712-1.608 1.763-1.003 1.003-4.288 5.446-5.878 7.953-3.025 4.754-6.431 11.514-8.696 17.289-1.625 4.149-2.628 6.95-5.411 15.041-2.904 8.489-3.907 10.598-6.051 12.742-1.66 1.694-3.043 2.351-4.824 2.351-0.968-0.017-1.435-0.104-2.213-0.484-4.149-1.954-7.157-9.543-8.264-20.885-0.121-1.21-0.277-2.196-0.346-2.196s-0.242 0.519-0.398 1.158c-0.156 0.657-0.501 2.144-0.795 3.337-0.709 2.922-2.472 10.892-2.922 13.139-1.539 7.849-3.112 17.669-3.544 22.043-0.069 0.571-0.138 1.314-0.19 1.642-0.104 0.83-0.207 1.833-0.415 4.063-1.193 12.379-1.297 23.858-0.363 34.318 0.294 3.268 0.709 6.967 0.951 8.558 3.924 25.604 13.744 45.694 30.601 62.585 8.247 8.264 18.153 15.75 31.119 23.547 5.169 3.112 7.192 4.063 12.361 5.878 10.39 3.648 24.36 6.587 37.603 7.901 6.328 0.64 9.958 0.795 17.34 0.795 7.59 0 10.736-0.156 16.632-0.795 22.942-2.49 42.132-10.373 56.689-23.34 2.559-2.265 6.639-6.258 8.662-8.454 2.317-2.507 2.68-2.922 3.994-4.495 15.802-18.793 25.103-40.611 27.558-64.659 0.934-9.249 0.934-17.721-0.017-27.057-0.795-7.901-2.161-14.955-4.512-23.322-0.328-1.176-0.847-1.746-0.605-0.674 0.069 0.311 0.121 3.406 0.121 6.881 0 7.469-0.294 10.736-1.47 16.597-2.49 12.206-7.382 22.354-13.848 28.613-1.089 1.055-2.576 2.317-3.319 2.818-1.539 1.055-3.769 2.144-5.083 2.472-0.501 0.121-0.916 0.277-0.916 0.346s0.571 0.467 1.262 0.882c5.359 3.302 10.961 5.083 15.352 4.91l1.521-0.069-0.882 1.746c-6.76 13.52-23.685 24.619-43.705 28.647-5.221 1.055-9.163 1.435-14.782 1.435-5.895 0-9.889-0.467-14.782-1.694-4.288-1.089-9.094-3.060-12.102-4.996-0.519-0.328-0.968-0.536-1.003-0.45-0.035 0.104 0.259 0.882 0.674 1.763 4.875 10.667 13.053 17.807 24.895 21.766 4.201 1.4 7.642 2.161 16.096 3.527 2.611 0.432 4.132 0.813 4.599 1.176 0.743 0.588-0.311 1.729-3.25 3.492-2.524 1.504-3.302 1.867-5.273 2.49-8.385 2.593-20.366 0.432-33.834-6.103-8.281-4.011-15.94-9.094-23.478-15.56-1.988-1.712-6.915-6.57-8.61-8.471-0.588-0.674-1.089-1.176-1.141-1.124-0.052 0.035 0.069 0.813 0.242 1.712 1.314 6.673 4.927 13.416 13.969 26.158 4.27 5.999 5.809 8.748 5.809 10.425 0.017 1.487-0.743 1.971-3.095 1.971-2.438 0-4.633-0.553-7.088-1.781-8.333-4.132-18.084-16.32-28.284-35.355-3.233-6.016-7.728-15.352-10.010-20.833-0.311-0.726-0.622-1.331-0.674-1.331-0.138 0-1.349 2.732-1.867 4.236-0.519 1.521-1.366 4.754-1.521 5.792-0.052 0.432-0.19 1.245-0.294 1.815-0.121 0.622-0.207 2.904-0.207 5.619 0 4.581 0.19 6.985 0.847 10.719 0.277 1.573 0.38 2.057 1.47 7.261 1.573 7.486 1.85 10.114 1.297 12.016-0.674 2.351-2.939 3.25-6.604 2.611-3.077-0.536-5.1-1.642-7.572-4.149-3.734-3.769-6.622-9.716-8.8-18.17-0.726-2.87-1.798-8.402-2.092-10.892-0.052-0.484-0.138-1.055-0.173-1.297-0.259-1.435-0.692-6.103-0.968-10.166-0.207-3.233-0.121-16.995 0.121-18.17 0.328-1.642-0.916 0.657-2.403 4.391-3.216 8.143-4.46 15.957-4.875 30.428-0.104 3.752-0.467 7.832-0.778 8.921-0.467 1.66-1.418 2.282-2.68 1.815-2.697-1.037-6.328-4.339-8.61-7.832-3.44-5.273-5.895-13.45-6.76-22.613-0.864-9.042-0.398-22.164 1.124-31.638 0.45-2.818 0.45-2.749-0.207-2.42-0.795 0.415-2.386 2.092-3.285 3.458-2.68 4.063-4.789 10.563-6.12 18.845-0.156 0.951-0.363 2.196-0.45 2.766-1.193 6.777-6.483-1.366-8.368-12.88-1.124-6.915-0.951-12.742 0.622-20.487 3.268-16.165 11.877-30.549 23.616-39.435 2.853-2.161 5.066-3.51 9.042-5.48 12.033-6.016 23.91-9.664 36.911-11.359 4.996-0.64 13.623-0.882 18.896-0.519 22.7 1.591 44.708 10.252 66.751 26.279 14.609 10.598 29.581 25.207 41.804 40.749 1.279 1.642 2.403 2.991 2.472 2.991 0.277 0 0.605-3.924 0.605-7.434 0-3.44-0.156-5.117-0.692-7.832-1.21-6.086-4.201-12.327-8.385-17.513-1.573-1.954-5.308-5.636-7.434-7.33-1.763-1.4-5.238-3.769-6.137-4.184-0.242-0.104-0.432-0.242-0.432-0.311s0.328-0.467 0.726-0.864c3.302-3.302 9.941-5.757 18.378-6.812 2.334-0.294 6.812-0.622 8.489-0.622 0.605 0 1.106-0.069 1.106-0.173 0-0.259-1.677-1.452-3.112-2.213-4.097-2.178-11.272-3.648-22.994-4.702-2.144-0.19-5.671-0.501-7.866-0.692-9.249-0.83-13.105-1.487-15.577-2.697-1.003-0.484-2.196-1.66-2.939-2.922-0.45-0.778-0.501-1.003-0.501-2.42 0-1.47 0.035-1.625 0.657-2.766 1.573-2.922 5.377-5.861 11.445-8.817 5.1-2.507 10.874-4.651 17.444-6.5 1.729-0.484 3.233-0.899 3.354-0.934 0.778-0.259-0.467-0.501-6.103-1.227-4.53-0.571-10.477-0.813-14.436-0.605-8.16 0.467-13.572 1.815-19.467 4.841-2.178 1.141-3.112 1.712-8.316 5.256-3.942 2.68-6.155 3.631-8.904 3.855-2.369 0.173-5.498-0.467-6.967-1.452-0.916-0.622-1.642-2.040-1.642-3.198 0-2.714 2.109-6.241 5.913-9.906 7.486-7.192 19-12.828 31.223-15.283 0.588-0.121 1.072-0.277 1.072-0.346 0-0.277-5.74-1.383-8.644-1.66-1.642-0.138-6.604-0.138-8.298 0-8.558 0.795-16.96 3.838-29.391 10.667-11.67 6.414-16.165 8.523-21.127 9.906-2.611 0.726-4.702 1.124-6.915 1.262l-1.677 0.104-0.207-0.501c-0.104-0.277-0.346-1.21-0.519-2.057-1.106-5.29 0.882-11.255 5.809-17.479 1.763-2.23 6.016-6.466 8.644-8.644 5.169-4.27 12.102-8.904 18.378-12.275 0.674-0.363 1.245-0.726 1.245-0.795 0-0.138-1.176-0.138-3.544-0.017z"></path>
<path fill="#000" d="M253.191 504.324c-8.385 0.605-15.56 1.936-22.734 4.218-9.595 3.043-17.928 7.624-25.138 13.762-1.712 1.452-5.965 5.826-7.382 7.607-5.809 7.175-9.975 15.283-12.672 24.653-1.331 4.616-2.438 10.339-2.956 15.266-0.138 1.383-0.294 2.835-0.346 3.233-0.035 0.415-0.017 0.743 0.069 0.743s1.435-2.507 3.008-5.584c4.409-8.679 6.57-12.085 9.751-15.352 3.752-3.855 8.056-6.172 14.972-8.056 0.19-0.052-0.017 0.328-0.588 1.106-2.23 2.922-4.391 6.777-5.429 9.647-1.504 4.097-2.023 8.368-1.677 13.606 0.311 4.391 0.882 9.163 1.141 9.422 0.052 0.052 1.020-0.328 2.126-0.864 7.123-3.389 14.885-5.463 24.083-6.449 3.492-0.38 13.036-0.432 16.511-0.086 10.045 0.951 19.674 3.233 28.042 6.604 2.801 1.124 8.212 3.734 10.684 5.169 10.097 5.792 17.894 13.502 22.077 21.784 0.363 0.726 0.501 0.813 1.971 1.4 16.856 6.812 35.009 6.794 51.312-0.035 7.054-2.956 14.453-7.607 19.467-12.206l1.106-1.037-0.743-1.798c-0.415-0.985-1.677-3.665-2.783-5.947-10.46-21.524-25.38-40.542-42.806-54.58-18.239-14.678-38.363-23.253-60.406-25.725-5.688-0.64-15.491-0.882-20.66-0.501z"></path>
<path fill="#000" d="M140.729 653.541c-0.864 3.458-2.161 5.342-7.123 10.46-3.838 3.959-4.737 5.135-5.273 6.95-0.674 2.317 0.207 4.322 3.786 8.627 1.4 1.677 6.656 7.244 7.763 8.229 0.415 0.38 1.729 1.625 2.922 2.766 1.867 1.798 5.93 5.532 11.41 10.494 0.813 0.726 3.769 3.354 6.57 5.861 8.99 8.005 10.632 9.803 11.981 13.157 1.988 4.962-0.605 9.146-9.958 16.061-2.611 1.936-3.129 2.42-2.317 2.161 3.475-1.055 6.224-1.487 9.612-1.487 6.622 0.017 12.863 2.040 16.13 5.256 1.556 1.521 2.126 2.68 2.126 4.357 0 1.573-0.467 2.541-1.971 4.063-1.349 1.331-2.576 2.109-5.636 3.544-3.147 1.47-4.668 2.317-6.31 3.561-4.651 3.51-5.774 8.022-2.974 12.016 1.020 1.435 2.057 2.42 3.613 3.406 4.374 2.801 8.558 3.164 13.796 1.21 3.008-1.124 5.55-2.455 13.226-6.95 5.636-3.285 9.509-5.273 12.102-6.189 2.092-0.726 3.769-1.176 3.907-1.055 0.035 0.052-0.242 0.622-0.657 1.279-3.268 5.359-3.181 10.166 0.259 13.157 2.455 2.144 3.302 3.458 4.046 6.224 0.432 1.556 0.467 1.971 0.45 5.066 0 2.974-0.052 3.648-0.467 5.653-0.242 1.262-0.795 3.285-1.21 4.495-0.743 2.196-2.040 5.29-2.386 5.723-0.363 0.432 0.052 0.415 1.366-0.052 6.881-2.455 11.065-6.449 12.517-11.929 0.605-2.299 0.64-6.967 0.052-10.027-0.277-1.452-0.553-2.714-1.279-5.878-1.625-6.985-1.625-7.227 0.432-14.349 0.571-1.954 0.657-2.507 0.674-4.149 0.017-2.23-0.277-3.112-1.504-4.391-1.902-1.988-4.547-3.025-10.235-4.063-7.192-1.314-10.753-3.285-12.603-6.967-0.242-0.484-0.795-2.109-1.227-3.613-1.314-4.53-2.248-5.878-5.377-7.797-3.337-2.057-5.515-3.907-7.434-6.379-1.158-1.47-2.49-3.613-3.043-4.91-0.934-2.109-1.694-4.962-1.694-6.31 0-0.588 0-0.588-0.83-0.571-2.749 0.017-9.232-4.858-17.168-12.932-8.575-8.731-16.061-18.291-21.956-28.077-2.887-4.806-6.5-12.396-7.434-15.612-0.121-0.45-0.294-0.813-0.363-0.813s-0.207 0.328-0.311 0.726z"></path>
<path fill="#000" d="M446.528 686.459c-0.882 0.864-3.51 3.337-5.844 5.515s-5.394 5.048-6.829 6.397c-3.319 3.112-7.78 7.296-8.541 7.97-0.501 0.467-0.553 0.588-0.38 0.916 1.227 2.282 3.492 12.551 4.253 19.294 0.052 0.467 0.138 1.141 0.173 1.47 0.052 0.328 0.121 1.037 0.173 1.556s0.156 1.729 0.242 2.68c0.501 5.1 0.622 8.644 0.622 17.634 0 7.244-0.069 10.598-0.311 14.090-0.173 2.524-0.328 4.772-0.38 5.014-0.035 0.242-0.121 1.089-0.173 1.902s-0.138 1.66-0.173 1.902c-0.035 0.242-0.121 0.968-0.173 1.642-0.138 1.815-1.349 11.099-1.556 12.085-0.035 0.19-0.121 0.674-0.173 1.055-0.259 1.936-1.003 6.034-1.815 10.148-2.645 13.208-6.5 26.434-11.203 38.432-2.161 5.48-6.103 14.263-8.056 17.98-0.501 0.951-1.176 2.23-1.504 2.853-0.311 0.622-0.674 1.262-0.813 1.418s-0.207 0.38-0.173 0.484c0.19 0.588 9.889-9.146 14.505-14.522 15.508-18.118 28.059-43.066 34.387-68.29 1.573-6.293 3.129-14.349 3.544-18.412 0.069-0.571 0.138-1.158 0.173-1.297 0.242-0.882 0.795-8.385 0.882-12.016 0.225-8.575-0.588-15.715-2.369-21.040-0.38-1.158-0.847-2.403-1.055-2.801l-0.346-0.709 0.726 0.692c8.264 7.832 15.266 18.067 20.539 30.065 0.363 0.864 0.761 1.591 0.864 1.625 0.346 0.104 0.138-8.61-0.277-11.687-1.539-11.186-5.619-23.028-11.946-34.664-4.495-8.247-9.491-15.179-14.332-19.899l-1.055-1.037-1.608 1.556z"></path>
<path fill="#000" d="M418.383 713.481c-11.065 11.151-24.187 19.346-39.418 24.653-2.23 0.761-7.642 2.351-9.82 2.853-1.504 0.346-1.608 0.415-1.521 0.761 0.259 0.951 1.833 9.561 2.075 11.428 0.052 0.38 0.225 1.539 0.363 2.576 0.363 2.628 0.882 7.469 1.158 10.65 0.311 3.648 0.311 18.067 0 21.351-0.277 2.887-1.003 8.817-1.245 10.027-0.086 0.467-0.207 1.141-0.259 1.47s-0.294 1.573-0.536 2.766c-3.008 14.695-8.8 27.714-17.41 39.159-4.218 5.584-9.422 11.151-13.693 14.626-11.289 9.198-30.047 16.217-53.94 20.193-3.095 0.519-8.298 1.279-10.114 1.487-0.519 0.069-1.141 0.138-1.383 0.173s-2.299 0.259-4.581 0.501c-24.411 2.541-49.791 2.178-69.673-1.020-6.449-1.037-12.033-1.608-21.351-2.196-4.806-0.311-24.221-0.311-29.218 0-3.406 0.207-10.753 0.778-12.621 0.985-30.203 3.268-53.007 11.099-68.463 23.495-1.971 1.591-2.455 2.040-5.48 5.031-8.558 8.489-13.71 18.239-15.957 30.255-0.813 4.305-0.934 5.74-0.934 10.632-0.017 5.29 0.173 7.071 1.193 11.151 2.438 9.872 8.558 18.205 17.894 24.36 10.39 6.864 23.201 10.771 40.715 12.413 3.838 0.363 18.309 0.294 22.441-0.086 16.372-1.539 30.117-5.014 40.749-10.304 7.278-3.613 12.188-7.469 15.456-12.102 1.176-1.677 1.227-2.23 0.052-0.726-1.902 2.455-6.622 5.066-13.26 7.33-7.469 2.559-17.34 4.616-28.353 5.895-1.954 0.225-2.697 0.294-5.619 0.536-8.35 0.709-20.418 0.692-27.575 0-3.406-0.346-4.772-0.501-7.261-0.882-12.845-1.971-22.613-5.723-29.2-11.22-4.824-4.011-7.832-9.198-8.765-15.179-0.346-2.161-0.259-7.417 0.173-9.716 1.781-9.751 5.584-18.343 11.117-25.068 6.777-8.247 16.995-14.073 29.736-16.943 7.676-1.729 17.306-2.507 26.728-2.161 4.824 0.173 5.117 0.207 9.803 0.605 15.975 1.4 34.56 5.187 56.101 11.445 2.472 0.709 5.826 1.694 7.434 2.161 13.537 3.924 29.581 6.985 41.925 8.005 0.709 0.052 2.040 0.173 2.939 0.259 6.362 0.605 23.668 0.605 29.996 0 0.951-0.104 2.196-0.225 2.766-0.277 13.831-1.279 29.097-4.841 41.752-9.751 18.412-7.123 34.698-17.392 49.877-31.448 1.66-1.539 6.985-6.881 8.558-8.575 2.248-2.438 2.887-3.129 3.976-4.409 0.622-0.709 1.262-1.435 1.435-1.642 0.64-0.692 4.253-5.238 5.515-6.915 11.549-15.387 20.141-33.799 25.656-54.978 2.351-8.973 4.547-21.092 5.342-29.391 0.052-0.571 0.138-1.314 0.173-1.642s0.121-1.106 0.173-1.729c0.052-0.622 0.138-1.47 0.19-1.902 0.277-2.49 0.605-8.592 0.795-14.747 0.207-7.14 0.035-18.015-0.38-23.461-0.398-5.135-0.605-7.711-0.778-9.336-0.035-0.432-0.121-1.176-0.173-1.642-0.346-3.371-1.003-8.126-1.556-11.324-0.138-0.813-0.259-1.521-0.259-1.608 0-0.294-0.415 0.086-3.458 3.147z"></path>
<path fill="#000" d="M235.47 748.801c-0.951 0.277-1.504 0.761-2.023 1.815-0.813 1.677-0.709 4.478 0.294 7.745 0.553 1.815 2.611 5.844 3.924 7.693 2.109 2.939 5.913 6.379 8.523 7.693 0.328 0.173 0.622 0.311 0.64 0.328s-0.138 0.571-0.363 1.245c-0.657 1.919-0.847 3.613-0.743 6.172 0.052 1.245 0.225 2.939 0.38 3.752 0.363 1.971 0.363 4.789 0 6.224-0.363 1.4-1.366 3.579-2.317 4.996-0.951 1.435-3.181 4.218-3.821 4.754-0.294 0.225-0.519 0.467-0.519 0.519 0 0.259 0.64 0.017 2.87-1.089 5.359-2.662 8.402-5.238 10.252-8.679 1.227-2.299 1.798-4.737 2.005-8.454 0.346-6.622 0.778-8.99 2.265-12.016l0.588-1.21-1.262-1.297c-1.936-1.971-2.904-3.406-4.754-7.036-2.213-4.339-3.665-6.449-5.792-8.471-2.351-2.213-5.757-4.253-7.866-4.702-1.072-0.225-1.47-0.225-2.282 0.017z"></path>
<path fill="#000" d="M256.078 751.636c-1.781 0.467-3.233 1.867-3.942 3.769-0.45 1.21-0.45 3.803 0 5.117 0.38 1.089 1.279 2.593 2.075 3.44 0.882 0.934 2.369 1.85 4.495 2.766 6.051 2.593 9.924 6.12 11.462 10.408 0.657 1.85 0.761 4.702 0.242 6.708-0.432 1.66-1.487 3.873-2.455 5.152-0.363 0.501-0.674 0.985-0.674 1.072 0 0.242 2.075-1.037 3.371-2.075 3.129-2.49 5.325-5.653 6.241-8.973 0.432-1.556 0.45-5.463 0.017-7.227-0.778-3.233-2.939-7.399-5.463-10.581-4.426-5.567-8.592-8.817-12.275-9.612-1.4-0.294-1.919-0.294-3.095 0.035z"></path>
<path fill="#000" d="M363.837 779.506c-0.086 0.069-0.588 0.743-1.106 1.504-4.011 5.947-9.076 10.114-14.713 12.154-3.268 1.176-6.639 1.902-11.843 2.541-3.803 0.484-7.711 1.262-10.010 2.005-1.746 0.571-4.945 2.040-4.945 2.265 0 0.069 0.328 0.086 0.743 0.017 0.398-0.086 2.005-0.138 3.579-0.121 4.011 0.017 6.777 0.571 9.647 1.971 1.85 0.882 2.783 1.539 4.097 2.853 3.803 3.769 4.080 9.146 0.674 12.603-2.161 2.213-4.996 3.44-9.18 3.994-4.53 0.605-8.921 0.138-24.1-2.507-12.932-2.265-15.058-2.507-22.026-2.49-4.080 0-4.945 0.052-6.829 0.398-5.532 1.020-10.667 3.406-14.955 6.95-1.262 1.037-1.591 1.47-0.985 1.297 0.259-0.069 1.366-0.207 4.443-0.536 4.512-0.501 11.186-0.847 13.399-0.709 0.813 0.052 2.248 0.138 3.198 0.19 7.175 0.398 12.845 2.42 15.439 5.498 3.786 4.547 0.484 11.895-7.365 16.338-4.167 2.369-8.679 3.389-13.226 2.991-4.478-0.398-8.558-1.279-13.606-2.956-3.942-1.297-6.708-2.403-14.177-5.653-12.482-5.463-16.908-7.019-22.596-8.022-2.23-0.38-6.622-0.657-6.622-0.398 0 0.086 0.761 0.588 1.677 1.106 3.458 1.971 6.345 4.46 7.814 6.743 2.939 4.547 1.106 9.301-4.737 12.309-3.458 1.763-7.019 2.559-11.549 2.559-5.359 0-8.592-0.899-13.848-3.873-18.274-10.287-41.717-18.136-61.651-20.66-4.374-0.553-4.668-0.571-4.668-0.38 0 0.104 0.121 0.19 0.259 0.19 0.467 0 4.426 1.642 6.587 2.732 4.581 2.299 7.832 5.048 9.163 7.728 0.657 1.314 0.674 1.435 0.674 3.112 0 1.642-0.035 1.781-0.588 2.801-2.144 3.976-8.108 6.449-15.577 6.449-3.976 0-8.056-0.709-12.551-2.178-12.085-3.924-27.229-4.754-44.103-2.403-13.658 1.919-27.454 6.155-35.891 11.030-0.934 0.536-1.781 0.985-1.867 0.985s-0.156 0.069-0.156 0.173c0 0.225 0.052 0.225 2.040-0.104 2.559-0.415 6.864-0.38 9.457 0.086 3.786 0.692 7.244 1.867 11.929 4.080 1.798 0.864 8.42 4.391 8.644 4.633 0.121 0.121 0.104 0.138-0.017 0.069-0.242-0.138-3.268 0.173-4.996 0.501-5.204 1.020-10.183 2.801-16.061 5.774-10.719 5.411-22.596 14.056-35.805 26.088-5.152 4.702-14.972 14.574-14.747 14.816 0.052 0.052 1.020-0.242 2.144-0.622 4.72-1.642 11.549-3.389 15.715-4.046 5.947-0.934 10.805-0.864 14.142 0.19l1.003 0.311-1.227 1.020c-0.674 0.571-2.092 1.936-3.164 3.043-6.794 7.036-12.534 16.528-17.185 28.44-1.106 2.818-2.818 7.918-2.714 8.039 0.052 0.035 0.19 0 0.311-0.086 5.861-4.236 9.924-7.088 14.298-10.079l0.813-0.536-0.328 1.020c-0.501 1.625-1.331 5.982-1.66 8.679-0.398 3.354-0.398 10.65 0 14.142 1.677 14.609 7.209 29.46 16.545 44.466 1.798 2.87 4.063 6.189 5.152 7.555l0.605 0.743 0.916-5.498c1.158-6.933 1.4-8.333 2.593-14.401 0.657-3.302 0.657-3.337 0.916-2.766 1.020 2.403 3.164 6.449 4.288 8.143 6.639 9.941 16.096 15.698 31.949 19.432 1.141 0.277 2.109 0.553 2.126 0.622 0.086 0.19 0.899 0.173 0.899-0.017 0-0.069-0.363-0.519-0.83-0.985-6.12-6.31-11.756-13.537-14.54-18.602l-0.743-1.349 0.501 0.225c0.259 0.121 1.262 0.605 2.196 1.055 10.598 5.1 22.492 6.639 34.854 4.512 6.898-1.176 15.733-4.167 22.907-7.728 3.233-1.608 7.348-3.855 7.348-4.011 0-0.086-0.363-0.104-0.813-0.035-0.467 0.052-2.853 0.225-5.325 0.398-5.636 0.363-19.916 0.415-24.463 0.086-9.561-0.692-16.787-1.729-23.737-3.389-19.415-4.651-33.782-13.744-41.769-26.434-7.036-11.168-8.765-24.498-4.945-38.242 4.27-15.352 15.266-30.168 30.583-41.216 9.198-6.639 21.593-11.445 36.496-14.177 4.322-0.795 12.067-1.815 16.424-2.161 0.674-0.052 2.144-0.173 3.285-0.277 6.5-0.519 10.218-0.605 25.068-0.605 14.885 0 17.392 0.052 33.194 0.692 3.423 0.138 8.212 0.328 10.632 0.432s5.308 0.207 6.397 0.259c21.49 0.899 44.967 0.899 56.62 0 16.925-1.331 28.301-3.233 39.418-6.604 16.701-5.066 31.5-13.191 42.547-23.357 2.853-2.628 4.391-4.253 7.745-8.16 0.761-0.882 3.025-3.942 4.115-5.532 4.685-6.898 8.316-14.92 10.494-23.167 0.553-2.057 1.47-6.535 1.642-8.039 0.069-0.484 0.156-1.176 0.207-1.556 0.45-3.527 0.64-7.451 0.519-11.065-0.156-4.080-0.294-5.48-0.536-5.308z"></path>
</svg>
