<?xml version="1.0" standalone="no"?>
<!DOCTYPE svg PUBLIC "-//W3C//DTD SVG 20010904//EN"
 "http://www.w3.org/TR/2001/REC-SVG-20010904/DTD/svg10.dtd">
<svg version="1.0" xmlns="http://www.w3.org/2000/svg"
 width="176.000000pt" height="486.000000pt" viewBox="0 0 176.000000 486.000000"
 preserveAspectRatio="xMidYMid meet">
<metadata>
Created by potrace 1.15, written by Peter Selinger 2001-2017
</metadata>
<g transform="translate(0.000000,486.000000) scale(0.100000,-0.100000)"
fill="#000000" stroke="none">
<path d="M710 4783 c0 -10 15 -60 32 -111 l33 -93 -31 -28 c-17 -16 -64 -41
-105 -56 -173 -64 -191 -80 -125 -111 31 -16 39 -15 142 9 157 38 386 68 479
65 l80 -3 -78 -77 c-42 -43 -83 -78 -90 -78 -8 0 -23 11 -35 25 -41 46 -66 29
-83 -58 -19 -95 -6 -141 59 -209 54 -57 56 -60 44 -90 l-11 -30 32 6 c18 3 52
10 77 15 25 6 72 8 105 4 50 -4 64 -2 84 14 20 16 23 25 17 54 -7 40 -52 91
-94 107 -15 6 -53 16 -84 22 -63 12 -108 42 -108 70 0 22 19 30 72 30 22 0 72
11 111 24 40 14 117 36 172 51 129 34 145 44 145 96 0 79 -57 133 -156 149
-32 6 -141 10 -242 10 -137 0 -184 3 -186 13 -3 6 -7 26 -11 42 -8 35 -85 113
-137 138 -49 23 -108 23 -108 0z"/>
<path d="M354 4490 c-30 -12 -91 -86 -120 -148 -36 -76 -41 -147 -14 -190 32
-51 122 -81 149 -49 33 41 67 294 47 355 -9 28 -35 42 -62 32z"/>
<path d="M639 4228 c-50 -100 -83 -149 -161 -239 -32 -37 -58 -70 -58 -73 0
-12 103 -5 136 9 126 53 260 220 240 300 -7 26 -78 85 -102 85 -8 0 -32 -37
-55 -82z"/>
<path d="M862 3889 c-30 -5 -97 -24 -150 -42 l-97 -32 -3 -37 c-5 -64 46 -79
176 -52 21 4 20 0 -19 -58 -85 -126 -221 -234 -319 -253 -73 -14 -100 -26
-100 -45 0 -33 22 -70 45 -76 12 -3 80 6 151 20 252 49 432 59 534 31 104 -29
124 -29 184 -2 52 24 56 28 56 60 0 70 -54 86 -295 87 -93 1 -178 5 -188 9
-17 6 -17 8 -3 20 9 7 16 19 16 26 0 7 13 15 28 18 32 6 128 104 174 176 76
120 -2 181 -190 150z"/>
<path d="M882 3248 c-7 -7 -12 -19 -12 -28 0 -21 -42 -87 -150 -235 -97 -133
-146 -213 -136 -222 11 -11 50 15 123 81 l71 66 7 -38 c14 -84 -33 -116 -191
-131 -103 -10 -121 -40 -63 -105 51 -59 91 -78 154 -74 l54 3 -27 -28 c-15
-16 -71 -67 -125 -114 -147 -129 -107 -122 70 11 91 68 134 96 147 96 3 0 10
-17 15 -37 10 -34 8 -40 -12 -60 -17 -18 -255 -130 -365 -174 -26 -10 -23 0
11 39 18 20 19 22 3 22 -9 0 -44 -26 -76 -58 -49 -47 -60 -64 -60 -90 0 -26 5
-35 26 -42 36 -14 189 7 234 31 19 11 83 44 143 74 l107 55 0 -145 c0 -161
-12 -228 -43 -250 -15 -11 -49 -15 -114 -15 -95 0 -118 -11 -65 -31 71 -28
115 -55 142 -89 59 -74 123 -77 164 -7 42 72 59 181 61 387 1 102 3 190 4 197
2 21 38 33 156 53 145 23 189 43 193 87 5 55 -24 73 -116 73 -53 0 -84 5 -98
15 -28 21 -36 18 -32 -12 2 -23 -3 -31 -32 -45 -20 -10 -50 -21 -67 -24 -30
-6 -32 -4 -38 28 -10 52 15 100 95 180 38 39 70 77 70 84 0 35 -63 63 -169 76
-13 2 -29 12 -35 23 -5 11 -18 32 -28 47 -10 15 -18 32 -18 38 0 5 30 30 68
54 108 70 135 111 108 164 -10 19 -36 40 -68 56 -59 29 -69 31 -86 14z"/>
<path d="M1068 1702 c-10 -2 -24 -24 -34 -55 -24 -74 -80 -182 -129 -252 -63
-89 -148 -165 -281 -250 -134 -87 -174 -121 -174 -147 0 -29 32 -22 208 47 91
36 168 64 173 63 4 -2 -8 -37 -28 -78 -42 -90 -67 -208 -84 -389 -14 -157 -8
-281 15 -316 19 -29 66 -34 86 -10 8 10 30 15 61 15 26 0 60 4 74 10 23 9 26
15 23 47 -3 33 -9 40 -57 68 -54 32 -87 75 -77 101 4 11 10 12 31 2 24 -11 29
-19 26 -46 -2 -14 17 -42 29 -42 4 0 13 25 20 55 13 55 13 56 -14 84 l-28 29
41 55 c43 56 52 96 26 117 -8 6 -42 14 -75 17 -33 3 -63 9 -66 14 -10 17 26
77 71 117 26 23 51 42 56 42 11 0 25 -49 48 -165 41 -208 54 -325 46 -425 -14
-175 -16 -165 31 -168 57 -4 81 19 94 88 9 49 6 100 -7 123 -2 4 -4 107 -4
230 1 231 -10 389 -29 412 -32 39 -135 20 -225 -41 -35 -24 -66 -44 -69 -44
-10 0 16 55 41 89 33 42 87 66 216 95 94 21 104 26 125 56 29 43 25 58 -17 87
-45 30 -109 30 -186 -2 l-60 -25 127 123 c125 120 144 147 136 198 -5 37 -108
83 -160 71z"/>
<path d="M855 1509 c-34 -17 -54 -19 -140 -14 -89 5 -104 4 -132 -14 -45 -28
-42 -55 11 -107 77 -74 160 -82 211 -22 19 22 25 39 22 57 -4 20 4 35 39 70
60 59 58 64 -11 30z"/>
<path d="M200 1160 c-22 -41 23 -194 80 -274 28 -39 29 -46 28 -136 -1 -85 3
-108 40 -221 48 -148 60 -222 42 -244 -7 -8 -29 -15 -50 -15 -51 0 -194 -28
-242 -47 -64 -26 -41 -37 88 -45 212 -13 637 -71 724 -99 19 -6 118 -14 220
-16 147 -4 204 -2 275 12 122 22 239 77 264 123 8 16 -13 17 -303 14 -171 -2
-368 1 -436 7 -133 11 -426 48 -448 56 -10 4 -9 11 7 31 12 15 21 40 21 56 0
46 -55 201 -111 314 l-50 102 23 76 c21 74 21 77 4 113 -36 77 -137 213 -158
213 -4 0 -12 -9 -18 -20z"/>
</g>
</svg>
