<!-- Generated by IcoMoon.io -->
<svg version="1.1" xmlns="http://www.w3.org/2000/svg" width="429" height="1024" viewBox="0 0 429 1024">
<title></title>
<g id="icomoon-ignore">
</g>
<path fill="#000" d="M197.656 11.431c-10.954 11.431-21.433 39.055-21.433 58.582 0 5.715 4.763 20.004 10.002 31.911 10.002 20.48 10.478 20.956 1.429 33.34-4.763 6.668-18.575 16.67-30.482 21.909-11.907 5.715-28.577 13.812-37.15 18.099-21.909 10.478-70.489 76.681-74.776 100.971-2.381 14.288-6.668 20.48-19.527 28.1-17.622 10.478-20.48 21.433-8.573 34.292 6.192 7.144 6.668 11.431 2.381 23.814-2.858 8.573-5.239 30.482-5.239 49.057s-3.334 44.294-7.144 57.63c-7.144 22.385-6.668 23.814 2.381 32.863 9.049 9.526 9.526 9.526 20.004-0.476 6.192-5.239 15.717-12.383 21.909-15.241 13.812-7.144 13.336-16.67-1.905-28.577l-12.383-10.002 13.336-26.672c7.62-15.241 17.146-28.1 21.909-29.529 8.573-1.905 29.053-30.006 34.292-47.628 7.144-21.909 13.812-12.383 19.527 28.577 1.429 11.907 5.239 23.814 8.573 26.672 3.334 2.381 22.385 9.049 43.341 14.765 41.436 12.383 71.918 11.907 98.113-0.953 8.573-4.763 20.48-8.097 26.672-8.097 16.193 0 20.956-13.336 20.956-57.63 0-45.247 4.763-44.77 16.193 0.476 4.763 19.527 11.907 34.768 19.051 41.436 6.668 6.192 15.241 22.385 20.004 36.197l8.097 25.719-12.86 12.383c-17.146 17.146-16.193 27.624 4.287 40.484 16.193 10.002 21.433 11.431 28.577 8.573 5.715-1.905 7.144-15.241 7.144-78.586 0-62.869 1.429-76.681 7.144-80.015s4.287-8.573-9.526-30.006c-9.526-14.288-18.099-31.434-19.527-38.102-5.239-27.624-18.575-60.964-31.911-80.491-10.954-15.717-21.433-23.814-45.723-34.768-50.009-22.385-69.537-51.914-50.962-76.681 12.86-16.67 0.476-68.108-20.004-84.301-15.717-12.86-32.387-11.907-46.199 1.905z"></path>
<path fill="#000" d="M112.878 458.657c-21.433 37.15-31.911 66.203-31.911 88.588 0.476 13.812 1.429 15.717 5.239 9.049 2.381-4.763 9.049-10.954 14.765-13.812 9.526-5.239 10.002-4.763 6.668 23.814-1.905 15.717-5.239 69.060-7.62 118.117-2.381 49.533-7.62 111.926-11.431 139.55-4.287 27.624-7.62 65.727-7.62 84.301 0 31.434 0.953 35.245 11.907 42.389 6.668 4.287 11.907 9.526 11.907 11.431 0 2.381-7.62 12.86-17.146 24.29l-17.146 20.48 10.954 9.049c22.861 18.099 43.341 3.334 59.535-43.341 4.287-13.812 9.049-18.099 21.433-21.433 9.049-2.381 17.622-5.715 20.004-7.62 1.905-1.905 0.953-32.387-2.381-67.632-8.573-94.78-8.573-96.208 16.193-149.552 11.907-26.195 24.767-56.677 28.1-68.108 3.334-10.954 6.192-19.527 7.144-18.575 0.953 0.476 4.287 16.193 8.573 35.245 3.81 18.575 13.812 50.486 21.909 70.966l15.241 37.626-1.905 78.586-1.429 78.11 15.717 3.81c8.097 1.905 22.385 5.715 30.958 7.62 14.765 3.334 15.241 4.287 16.67 30.958 1.429 22.861 3.334 28.577 12.86 34.768 13.812 9.049 42.865 5.715 46.675-4.763 1.429-3.81-4.763-18.099-13.336-32.387-19.527-30.482-21.909-50.009-5.715-53.82 12.383-3.334 12.383 0.476 3.334-72.394-3.334-24.29-8.573-55.248-12.383-69.060s-9.049-59.535-11.907-101.447c-2.858-41.913-6.668-84.301-8.573-93.827-2.381-10.478-2.381-19.051 0.953-22.385 9.526-9.526-19.051-126.214-32.863-135.263-2.381-1.429-16.193 2.381-30.482 8.573-29.529 12.86-29.053 10.478-17.146 66.679 4.763 20.956 12.383 64.774 17.146 97.637l9.049 59.535-10.002 8.573c-5.715 4.763-13.336 7.62-17.622 7.144-6.192-1.429-8.097-13.812-10.954-77.633-3.81-83.349-10.002-128.595-18.575-138.597-6.192-7.62-42.865-9.049-50.009-2.381-2.381 2.858-2.858 36.197-0.476 87.159 1.905 45.247 2.858 97.161 2.381 115.736-1.429 30.006-2.381 33.34-11.431 34.768-10.002 1.429-10.002-0.476-13.336-111.449-3.81-110.497-3.334-112.878 6.668-126.69l10.002-13.812-20.48-9.049c-11.431-5.239-22.861-9.526-25.243-9.526-2.858 0-12.86 13.336-22.861 30.006z"></path>
</svg>
